<?xml version="1.0" encoding="UTF-8" standalone="no"?>
<!DOCTYPE svg PUBLIC "-//W3C//DTD SVG 1.1//EN"
 "http://www.w3.org/Graphics/SVG/1.1/DTD/svg11.dtd">
<!-- Generated by graphviz version 2.36.0 (20140111.2315)
 -->
<!-- Title: controllers_diagram Pages: 1 -->
<svg width="1502pt" height="1226pt"
 viewBox="0.00 0.00 1501.90 1226.48" xmlns="http://www.w3.org/2000/svg" xmlns:xlink="http://www.w3.org/1999/xlink">
<g id="graph0" class="graph" transform="scale(1 1) rotate(0) translate(4 1222.48)">
<title>controllers_diagram</title>
<polygon fill="white" stroke="none" points="-4,4 -4,-1222.48 1497.9,-1222.48 1497.9,4 -4,4"/>
<!-- _diagram_info -->
<g id="node1" class="node"><title>_diagram_info</title>
<text text-anchor="start" x="1295" y="-1147.6" font-family="Times,serif" font-size="13.00">Controllers diagram</text>
<text text-anchor="start" x="1295" y="-1134.6" font-family="Times,serif" font-size="13.00">Date: Mar 13 2015 &#45; 12:10</text>
<text text-anchor="start" x="1295" y="-1121.6" font-family="Times,serif" font-size="13.00">Migration version: 20150312211208</text>
<text text-anchor="start" x="1295" y="-1108.6" font-family="Times,serif" font-size="13.00">Generated by RailRoady 1.3.0</text>
<text text-anchor="start" x="1295" y="-1095.6" font-family="Times,serif" font-size="13.00">http://railroady.prestonlee.com</text>
</g>
<!-- ApplicationController -->
<g id="node2" class="node"><title>ApplicationController</title>
<path fill="none" stroke="black" d="M345.265,-408.594C345.265,-408.594 512.196,-408.594 512.196,-408.594 518.196,-408.594 524.196,-414.594 524.196,-420.594 524.196,-420.594 524.196,-486.594 524.196,-486.594 524.196,-492.594 518.196,-498.594 512.196,-498.594 512.196,-498.594 345.265,-498.594 345.265,-498.594 339.265,-498.594 333.265,-492.594 333.265,-486.594 333.265,-486.594 333.265,-420.594 333.265,-420.594 333.265,-414.594 339.265,-408.594 345.265,-408.594"/>
<text text-anchor="middle" x="428.73" y="-483.394" font-family="Times,serif" font-size="14.00">ApplicationController</text>
<polyline fill="none" stroke="black" points="333.265,-476.594 524.196,-476.594 "/>
<text text-anchor="start" x="341.265" y="-461.394" font-family="Times,serif" font-size="14.00">authenticate_user_from_token!</text>
<polyline fill="none" stroke="black" points="333.265,-454.594 524.196,-454.594 "/>
<polyline fill="none" stroke="black" points="333.265,-430.594 524.196,-430.594 "/>
<text text-anchor="start" x="341.265" y="-415.394" font-family="Times,serif" font-size="14.00">_layout</text>
</g>
<!-- ContactsController -->
<g id="node3" class="node"><title>ContactsController</title>
<path fill="none" stroke="black" d="M333.098,-757.576C333.098,-757.576 431.636,-757.576 431.636,-757.576 437.636,-757.576 443.636,-763.576 443.636,-769.576 443.636,-769.576 443.636,-919.576 443.636,-919.576 443.636,-925.576 437.636,-931.576 431.636,-931.576 431.636,-931.576 333.098,-931.576 333.098,-931.576 327.098,-931.576 321.098,-925.576 321.098,-919.576 321.098,-919.576 321.098,-769.576 321.098,-769.576 321.098,-763.576 327.098,-757.576 333.098,-757.576"/>
<text text-anchor="middle" x="382.367" y="-916.376" font-family="Times,serif" font-size="14.00">ContactsController</text>
<polyline fill="none" stroke="black" points="321.098,-909.576 443.636,-909.576 "/>
<text text-anchor="start" x="329.098" y="-894.376" font-family="Times,serif" font-size="14.00">create</text>
<text text-anchor="start" x="329.098" y="-880.376" font-family="Times,serif" font-size="14.00">delete</text>
<text text-anchor="start" x="329.098" y="-866.376" font-family="Times,serif" font-size="14.00">index</text>
<text text-anchor="start" x="329.098" y="-852.376" font-family="Times,serif" font-size="14.00">show</text>
<text text-anchor="start" x="329.098" y="-838.376" font-family="Times,serif" font-size="14.00">update</text>
<polyline fill="none" stroke="black" points="321.098,-831.576 443.636,-831.576 "/>
<polyline fill="none" stroke="black" points="321.098,-807.576 443.636,-807.576 "/>
<text text-anchor="start" x="329.098" y="-792.376" font-family="Times,serif" font-size="14.00">_layout</text>
<text text-anchor="start" x="329.098" y="-778.376" font-family="Times,serif" font-size="14.00">contact_params</text>
<text text-anchor="start" x="329.098" y="-764.376" font-family="Times,serif" font-size="14.00">set_contact</text>
</g>
<!-- ApplicationController&#45;&gt;ContactsController -->
<g id="edge1" class="edge"><title>ApplicationController&#45;&gt;ContactsController</title>
<path fill="none" stroke="black" d="M423.367,-498.827C415.894,-561.844 402.201,-677.317 392.707,-757.382"/>
</g>
<!-- InsurancesController -->
<g id="node4" class="node"><title>InsurancesController</title>
<path fill="none" stroke="black" d="M305.324,-0.5C305.324,-0.5 414.731,-0.5 414.731,-0.5 420.731,-0.5 426.731,-6.5 426.731,-12.5 426.731,-12.5 426.731,-148.5 426.731,-148.5 426.731,-154.5 420.731,-160.5 414.731,-160.5 414.731,-160.5 305.324,-160.5 305.324,-160.5 299.324,-160.5 293.324,-154.5 293.324,-148.5 293.324,-148.5 293.324,-12.5 293.324,-12.5 293.324,-6.5 299.324,-0.5 305.324,-0.5"/>
<text text-anchor="middle" x="360.027" y="-145.3" font-family="Times,serif" font-size="14.00">InsurancesController</text>
<polyline fill="none" stroke="black" points="293.324,-138.5 426.731,-138.5 "/>
<text text-anchor="start" x="301.324" y="-123.3" font-family="Times,serif" font-size="14.00">add_contact</text>
<text text-anchor="start" x="301.324" y="-109.3" font-family="Times,serif" font-size="14.00">create</text>
<polyline fill="none" stroke="black" points="293.324,-102.5 426.731,-102.5 "/>
<polyline fill="none" stroke="black" points="293.324,-78.5 426.731,-78.5 "/>
<text text-anchor="start" x="301.324" y="-63.3" font-family="Times,serif" font-size="14.00">_layout</text>
<text text-anchor="start" x="301.324" y="-49.3" font-family="Times,serif" font-size="14.00">contact_params</text>
<text text-anchor="start" x="301.324" y="-35.3" font-family="Times,serif" font-size="14.00">insurance_params</text>
<text text-anchor="start" x="301.324" y="-21.3" font-family="Times,serif" font-size="14.00">set_contact</text>
<text text-anchor="start" x="301.324" y="-7.3" font-family="Times,serif" font-size="14.00">set_item</text>
</g>
<!-- ApplicationController&#45;&gt;InsurancesController -->
<g id="edge2" class="edge"><title>ApplicationController&#45;&gt;InsurancesController</title>
<path fill="none" stroke="black" d="M420.443,-408.59C409.148,-347.249 388.731,-236.373 374.785,-160.645"/>
</g>
<!-- ItemsController -->
<g id="node5" class="node"><title>ItemsController</title>
<path fill="none" stroke="black" d="M13.6336,-619.484C13.6336,-619.484 112.944,-619.484 112.944,-619.484 118.944,-619.484 124.944,-625.484 124.944,-631.484 124.944,-631.484 124.944,-851.484 124.944,-851.484 124.944,-857.484 118.944,-863.484 112.944,-863.484 112.944,-863.484 13.6336,-863.484 13.6336,-863.484 7.63363,-863.484 1.63363,-857.484 1.63363,-851.484 1.63363,-851.484 1.63363,-631.484 1.63363,-631.484 1.63363,-625.484 7.63363,-619.484 13.6336,-619.484"/>
<text text-anchor="middle" x="63.2889" y="-848.284" font-family="Times,serif" font-size="14.00">ItemsController</text>
<polyline fill="none" stroke="black" points="1.63363,-841.484 124.944,-841.484 "/>
<text text-anchor="start" x="9.63363" y="-826.284" font-family="Times,serif" font-size="14.00">add_property_item</text>
<text text-anchor="start" x="9.63363" y="-812.284" font-family="Times,serif" font-size="14.00">add_room_item</text>
<text text-anchor="start" x="9.63363" y="-798.284" font-family="Times,serif" font-size="14.00">destroy</text>
<text text-anchor="start" x="9.63363" y="-784.284" font-family="Times,serif" font-size="14.00">edit</text>
<text text-anchor="start" x="9.63363" y="-770.284" font-family="Times,serif" font-size="14.00">property_items</text>
<text text-anchor="start" x="9.63363" y="-756.284" font-family="Times,serif" font-size="14.00">room_items</text>
<polyline fill="none" stroke="black" points="1.63363,-749.484 124.944,-749.484 "/>
<polyline fill="none" stroke="black" points="1.63363,-725.484 124.944,-725.484 "/>
<text text-anchor="start" x="9.63363" y="-710.284" font-family="Times,serif" font-size="14.00">_layout</text>
<text text-anchor="start" x="9.63363" y="-696.284" font-family="Times,serif" font-size="14.00">item_params</text>
<text text-anchor="start" x="9.63363" y="-682.284" font-family="Times,serif" font-size="14.00">set_item</text>
<text text-anchor="start" x="9.63363" y="-668.284" font-family="Times,serif" font-size="14.00">set_property</text>
<text text-anchor="start" x="9.63363" y="-654.284" font-family="Times,serif" font-size="14.00">set_property_items</text>
<text text-anchor="start" x="9.63363" y="-640.284" font-family="Times,serif" font-size="14.00">set_room</text>
<text text-anchor="start" x="9.63363" y="-626.284" font-family="Times,serif" font-size="14.00">set_room_items</text>
</g>
<!-- ApplicationController&#45;&gt;ItemsController -->
<g id="edge3" class="edge"><title>ApplicationController&#45;&gt;ItemsController</title>
<path fill="none" stroke="black" d="M371.228,-498.894C304.194,-551.702 193.835,-638.641 125.034,-692.842"/>
</g>
<!-- PropertiesController -->
<g id="node6" class="node"><title>PropertiesController</title>
<path fill="none" stroke="black" d="M67.0623,-987.983C67.0623,-987.983 181.911,-987.983 181.911,-987.983 187.911,-987.983 193.911,-993.983 193.911,-999.983 193.911,-999.983 193.911,-1205.98 193.911,-1205.98 193.911,-1211.98 187.911,-1217.98 181.911,-1217.98 181.911,-1217.98 67.0623,-1217.98 67.0623,-1217.98 61.0623,-1217.98 55.0623,-1211.98 55.0623,-1205.98 55.0623,-1205.98 55.0623,-999.983 55.0623,-999.983 55.0623,-993.983 61.0623,-987.983 67.0623,-987.983"/>
<text text-anchor="middle" x="124.487" y="-1202.78" font-family="Times,serif" font-size="14.00">PropertiesController</text>
<polyline fill="none" stroke="black" points="55.0623,-1195.98 193.911,-1195.98 "/>
<text text-anchor="start" x="63.0623" y="-1180.78" font-family="Times,serif" font-size="14.00">add</text>
<text text-anchor="start" x="63.0623" y="-1166.78" font-family="Times,serif" font-size="14.00">destroy</text>
<text text-anchor="start" x="63.0623" y="-1152.78" font-family="Times,serif" font-size="14.00">edit</text>
<text text-anchor="start" x="63.0623" y="-1138.78" font-family="Times,serif" font-size="14.00">index</text>
<text text-anchor="start" x="63.0623" y="-1124.78" font-family="Times,serif" font-size="14.00">reimport</text>
<polyline fill="none" stroke="black" points="55.0623,-1117.98 193.911,-1117.98 "/>
<polyline fill="none" stroke="black" points="55.0623,-1093.98 193.911,-1093.98 "/>
<text text-anchor="start" x="63.0623" y="-1078.78" font-family="Times,serif" font-size="14.00">_layout</text>
<text text-anchor="start" x="63.0623" y="-1064.78" font-family="Times,serif" font-size="14.00">address_exists?</text>
<text text-anchor="start" x="63.0623" y="-1050.78" font-family="Times,serif" font-size="14.00">address_params</text>
<text text-anchor="start" x="63.0623" y="-1036.78" font-family="Times,serif" font-size="14.00">edit_property_params</text>
<text text-anchor="start" x="63.0623" y="-1022.78" font-family="Times,serif" font-size="14.00">new_property?</text>
<text text-anchor="start" x="63.0623" y="-1008.78" font-family="Times,serif" font-size="14.00">property_params</text>
<text text-anchor="start" x="63.0623" y="-994.783" font-family="Times,serif" font-size="14.00">set_property</text>
</g>
<!-- ApplicationController&#45;&gt;PropertiesController -->
<g id="edge4" class="edge"><title>ApplicationController&#45;&gt;PropertiesController</title>
<path fill="none" stroke="black" d="M407.578,-498.742C360.649,-598.91 246.591,-842.359 178.434,-987.836"/>
</g>
<!-- RoomsController -->
<g id="node8" class="node"><title>RoomsController</title>
<path fill="none" stroke="black" d="M37.0625,-342.627C37.0625,-342.627 126.283,-342.627 126.283,-342.627 132.283,-342.627 138.283,-348.627 138.283,-354.627 138.283,-354.627 138.283,-490.627 138.283,-490.627 138.283,-496.627 132.283,-502.627 126.283,-502.627 126.283,-502.627 37.0625,-502.627 37.0625,-502.627 31.0625,-502.627 25.0625,-496.627 25.0625,-490.627 25.0625,-490.627 25.0625,-354.627 25.0625,-354.627 25.0625,-348.627 31.0625,-342.627 37.0625,-342.627"/>
<text text-anchor="middle" x="81.6728" y="-487.427" font-family="Times,serif" font-size="14.00">RoomsController</text>
<polyline fill="none" stroke="black" points="25.0625,-480.627 138.283,-480.627 "/>
<text text-anchor="start" x="33.0625" y="-465.427" font-family="Times,serif" font-size="14.00">add</text>
<text text-anchor="start" x="33.0625" y="-451.427" font-family="Times,serif" font-size="14.00">destroy</text>
<text text-anchor="start" x="33.0625" y="-437.427" font-family="Times,serif" font-size="14.00">edit</text>
<polyline fill="none" stroke="black" points="25.0625,-430.627 138.283,-430.627 "/>
<polyline fill="none" stroke="black" points="25.0625,-406.627 138.283,-406.627 "/>
<text text-anchor="start" x="33.0625" y="-391.427" font-family="Times,serif" font-size="14.00">_layout</text>
<text text-anchor="start" x="33.0625" y="-377.427" font-family="Times,serif" font-size="14.00">room_params</text>
<text text-anchor="start" x="33.0625" y="-363.427" font-family="Times,serif" font-size="14.00">set_property</text>
<text text-anchor="start" x="33.0625" y="-349.427" font-family="Times,serif" font-size="14.00">set_room</text>
</g>
<!-- ApplicationController&#45;&gt;RoomsController -->
<g id="edge6" class="edge"><title>ApplicationController&#45;&gt;RoomsController</title>
<path fill="none" stroke="black" d="M332.977,-445.05C270.478,-439.474 191.008,-432.383 138.351,-427.684"/>
</g>
<!-- UsersController -->
<g id="node10" class="node"><title>UsersController</title>
<path fill="none" stroke="black" d="M12,-29.8156C12,-29.8156 93.4277,-29.8156 93.4277,-29.8156 99.4277,-29.8156 105.428,-35.8156 105.428,-41.8156 105.428,-41.8156 105.428,-107.816 105.428,-107.816 105.428,-113.816 99.4277,-119.816 93.4277,-119.816 93.4277,-119.816 12,-119.816 12,-119.816 6,-119.816 0,-113.816 0,-107.816 0,-107.816 0,-41.8156 0,-41.8156 0,-35.8156 6,-29.8156 12,-29.8156"/>
<text text-anchor="middle" x="52.7139" y="-104.616" font-family="Times,serif" font-size="14.00">UsersController</text>
<polyline fill="none" stroke="black" points="0,-97.8156 105.428,-97.8156 "/>
<text text-anchor="start" x="8" y="-82.6156" font-family="Times,serif" font-size="14.00">show</text>
<polyline fill="none" stroke="black" points="0,-75.8156 105.428,-75.8156 "/>
<polyline fill="none" stroke="black" points="0,-51.8156 105.428,-51.8156 "/>
<text text-anchor="start" x="8" y="-36.6156" font-family="Times,serif" font-size="14.00">_layout</text>
</g>
<!-- ApplicationController&#45;&gt;UsersController -->
<g id="edge8" class="edge"><title>ApplicationController&#45;&gt;UsersController</title>
<path fill="none" stroke="black" d="M383.748,-408.281C311.329,-335.33 169.721,-192.682 97.4563,-119.887"/>
</g>
<!-- WarrantiesController -->
<g id="node11" class="node"><title>WarrantiesController</title>
<path fill="none" stroke="black" d="M565.386,-26.1623C565.386,-26.1623 675.224,-26.1623 675.224,-26.1623 681.224,-26.1623 687.224,-32.1623 687.224,-38.1623 687.224,-38.1623 687.224,-174.162 687.224,-174.162 687.224,-180.162 681.224,-186.162 675.224,-186.162 675.224,-186.162 565.386,-186.162 565.386,-186.162 559.386,-186.162 553.386,-180.162 553.386,-174.162 553.386,-174.162 553.386,-38.1623 553.386,-38.1623 553.386,-32.1623 559.386,-26.1623 565.386,-26.1623"/>
<text text-anchor="middle" x="620.305" y="-170.962" font-family="Times,serif" font-size="14.00">WarrantiesController</text>
<polyline fill="none" stroke="black" points="553.386,-164.162 687.224,-164.162 "/>
<text text-anchor="start" x="561.386" y="-148.962" font-family="Times,serif" font-size="14.00">add_contact</text>
<text text-anchor="start" x="561.386" y="-134.962" font-family="Times,serif" font-size="14.00">create</text>
<polyline fill="none" stroke="black" points="553.386,-128.162 687.224,-128.162 "/>
<polyline fill="none" stroke="black" points="553.386,-104.162 687.224,-104.162 "/>
<text text-anchor="start" x="561.386" y="-88.9623" font-family="Times,serif" font-size="14.00">_layout</text>
<text text-anchor="start" x="561.386" y="-74.9623" font-family="Times,serif" font-size="14.00">contact_params</text>
<text text-anchor="start" x="561.386" y="-60.9623" font-family="Times,serif" font-size="14.00">set_contact</text>
<text text-anchor="start" x="561.386" y="-46.9623" font-family="Times,serif" font-size="14.00">set_item</text>
<text text-anchor="start" x="561.386" y="-32.9623" font-family="Times,serif" font-size="14.00">warranty_params</text>
</g>
<!-- ApplicationController&#45;&gt;WarrantiesController -->
<g id="edge9" class="edge"><title>ApplicationController&#45;&gt;WarrantiesController</title>
<path fill="none" stroke="black" d="M453.579,-408.53C484.559,-352.346 538.061,-255.316 576.099,-186.332"/>
</g>
<!-- DeviseController -->
<g id="node18" class="node"><title>DeviseController</title>
<path fill="none" stroke="black" d="M733.656,-286.744C733.656,-286.744 878.07,-286.744 878.07,-286.744 884.07,-286.744 890.07,-292.744 890.07,-298.744 890.07,-298.744 890.07,-600.744 890.07,-600.744 890.07,-606.744 884.07,-612.744 878.07,-612.744 878.07,-612.744 733.656,-612.744 733.656,-612.744 727.656,-612.744 721.656,-606.744 721.656,-600.744 721.656,-600.744 721.656,-298.744 721.656,-298.744 721.656,-292.744 727.656,-286.744 733.656,-286.744"/>
<text text-anchor="middle" x="805.863" y="-597.544" font-family="Times,serif" font-size="14.00">DeviseController</text>
<polyline fill="none" stroke="black" points="721.656,-590.744 890.07,-590.744 "/>
<text text-anchor="start" x="729.656" y="-575.544" font-family="Times,serif" font-size="14.00">_prefixes</text>
<text text-anchor="start" x="729.656" y="-561.544" font-family="Times,serif" font-size="14.00">devise_mapping</text>
<text text-anchor="start" x="729.656" y="-547.544" font-family="Times,serif" font-size="14.00">resource</text>
<text text-anchor="start" x="729.656" y="-533.544" font-family="Times,serif" font-size="14.00">resource_class</text>
<text text-anchor="start" x="729.656" y="-519.544" font-family="Times,serif" font-size="14.00">resource_name</text>
<text text-anchor="start" x="729.656" y="-505.544" font-family="Times,serif" font-size="14.00">scope_name</text>
<text text-anchor="start" x="729.656" y="-491.544" font-family="Times,serif" font-size="14.00">signed_in_resource</text>
<polyline fill="none" stroke="black" points="721.656,-484.744 890.07,-484.744 "/>
<text text-anchor="start" x="729.656" y="-469.544" font-family="Times,serif" font-size="14.00">assert_is_devise_resource!</text>
<text text-anchor="start" x="729.656" y="-455.544" font-family="Times,serif" font-size="14.00">clean_up_passwords</text>
<text text-anchor="start" x="729.656" y="-441.544" font-family="Times,serif" font-size="14.00">devise_i18n_options</text>
<text text-anchor="start" x="729.656" y="-427.544" font-family="Times,serif" font-size="14.00">find_message</text>
<text text-anchor="start" x="729.656" y="-413.544" font-family="Times,serif" font-size="14.00">navigational_formats</text>
<text text-anchor="start" x="729.656" y="-399.544" font-family="Times,serif" font-size="14.00">require_no_authentication</text>
<text text-anchor="start" x="729.656" y="-385.544" font-family="Times,serif" font-size="14.00">resource=</text>
<text text-anchor="start" x="729.656" y="-371.544" font-family="Times,serif" font-size="14.00">resource_params</text>
<text text-anchor="start" x="729.656" y="-357.544" font-family="Times,serif" font-size="14.00">respond_with_navigational</text>
<text text-anchor="start" x="729.656" y="-343.544" font-family="Times,serif" font-size="14.00">set_flash_message</text>
<text text-anchor="start" x="729.656" y="-329.544" font-family="Times,serif" font-size="14.00">successfully_sent?</text>
<text text-anchor="start" x="729.656" y="-315.544" font-family="Times,serif" font-size="14.00">unknown_action!</text>
<polyline fill="none" stroke="black" points="721.656,-308.744 890.07,-308.744 "/>
<text text-anchor="start" x="729.656" y="-293.544" font-family="Times,serif" font-size="14.00">_layout</text>
</g>
<!-- ApplicationController&#45;&gt;DeviseController -->
<g id="edge16" class="edge"><title>ApplicationController&#45;&gt;DeviseController</title>
<path fill="none" stroke="black" d="M524.384,-452.618C585.159,-451.997 663.1,-451.201 721.551,-450.605"/>
</g>
<!-- RegistrationsController -->
<g id="node7" class="node"><title>RegistrationsController</title>
<path fill="none" stroke="black" d="M563.398,-1056.65C563.398,-1056.65 686.825,-1056.65 686.825,-1056.65 692.825,-1056.65 698.825,-1062.65 698.825,-1068.65 698.825,-1068.65 698.825,-1148.65 698.825,-1148.65 698.825,-1154.65 692.825,-1160.65 686.825,-1160.65 686.825,-1160.65 563.398,-1160.65 563.398,-1160.65 557.398,-1160.65 551.398,-1154.65 551.398,-1148.65 551.398,-1148.65 551.398,-1068.65 551.398,-1068.65 551.398,-1062.65 557.398,-1056.65 563.398,-1056.65"/>
<text text-anchor="middle" x="625.111" y="-1145.45" font-family="Times,serif" font-size="14.00">RegistrationsController</text>
<polyline fill="none" stroke="black" points="551.398,-1138.65 698.825,-1138.65 "/>
<text text-anchor="start" x="559.398" y="-1123.45" font-family="Times,serif" font-size="14.00">create</text>
<polyline fill="none" stroke="black" points="551.398,-1116.65 698.825,-1116.65 "/>
<polyline fill="none" stroke="black" points="551.398,-1092.65 698.825,-1092.65 "/>
<text text-anchor="start" x="559.398" y="-1077.45" font-family="Times,serif" font-size="14.00">_layout</text>
<text text-anchor="start" x="559.398" y="-1063.45" font-family="Times,serif" font-size="14.00">user_params</text>
</g>
<!-- SessionsController -->
<g id="node9" class="node"><title>SessionsController</title>
<path fill="none" stroke="black" d="M1067.81,-1057.23C1067.81,-1057.23 1165.59,-1057.23 1165.59,-1057.23 1171.59,-1057.23 1177.59,-1063.23 1177.59,-1069.23 1177.59,-1069.23 1177.59,-1135.23 1177.59,-1135.23 1177.59,-1141.23 1171.59,-1147.23 1165.59,-1147.23 1165.59,-1147.23 1067.81,-1147.23 1067.81,-1147.23 1061.81,-1147.23 1055.81,-1141.23 1055.81,-1135.23 1055.81,-1135.23 1055.81,-1069.23 1055.81,-1069.23 1055.81,-1063.23 1061.81,-1057.23 1067.81,-1057.23"/>
<text text-anchor="middle" x="1116.7" y="-1132.03" font-family="Times,serif" font-size="14.00">SessionsController</text>
<polyline fill="none" stroke="black" points="1055.81,-1125.23 1177.59,-1125.23 "/>
<text text-anchor="start" x="1063.81" y="-1110.03" font-family="Times,serif" font-size="14.00">create</text>
<polyline fill="none" stroke="black" points="1055.81,-1103.23 1177.59,-1103.23 "/>
<polyline fill="none" stroke="black" points="1055.81,-1079.23 1177.59,-1079.23 "/>
<text text-anchor="start" x="1063.81" y="-1064.03" font-family="Times,serif" font-size="14.00">_layout</text>
</g>
<!-- Devise::ConfirmationsController -->
<g id="node12" class="node"><title>Devise::ConfirmationsController</title>
<path fill="none" stroke="black" d="M740.095,-14.6869C740.095,-14.6869 1024.47,-14.6869 1024.47,-14.6869 1030.47,-14.6869 1036.47,-20.6869 1036.47,-26.6869 1036.47,-26.6869 1036.47,-132.687 1036.47,-132.687 1036.47,-138.687 1030.47,-144.687 1024.47,-144.687 1024.47,-144.687 740.095,-144.687 740.095,-144.687 734.095,-144.687 728.095,-138.687 728.095,-132.687 728.095,-132.687 728.095,-26.6869 728.095,-26.6869 728.095,-20.6869 734.095,-14.6869 740.095,-14.6869"/>
<text text-anchor="middle" x="882.281" y="-129.487" font-family="Times,serif" font-size="14.00">Devise::ConfirmationsController</text>
<polyline fill="none" stroke="black" points="728.095,-122.687 1036.47,-122.687 "/>
<text text-anchor="start" x="736.095" y="-107.487" font-family="Times,serif" font-size="14.00">create</text>
<text text-anchor="start" x="736.095" y="-93.4869" font-family="Times,serif" font-size="14.00">new</text>
<text text-anchor="start" x="736.095" y="-79.4869" font-family="Times,serif" font-size="14.00">show</text>
<polyline fill="none" stroke="black" points="728.095,-72.6869 1036.47,-72.6869 "/>
<text text-anchor="start" x="736.095" y="-57.4869" font-family="Times,serif" font-size="14.00">after_confirmation_path_for</text>
<text text-anchor="start" x="736.095" y="-43.4869" font-family="Times,serif" font-size="14.00">after_resending_confirmation_instructions_path_for</text>
<polyline fill="none" stroke="black" points="728.095,-36.6869 1036.47,-36.6869 "/>
<text text-anchor="start" x="736.095" y="-21.4869" font-family="Times,serif" font-size="14.00">_layout</text>
</g>
<!-- Devise::OmniauthCallbacksController -->
<g id="node13" class="node"><title>Devise::OmniauthCallbacksController</title>
<path fill="none" stroke="black" d="M513.329,-626.438C513.329,-626.438 720.73,-626.438 720.73,-626.438 726.73,-626.438 732.73,-632.438 732.73,-638.438 732.73,-638.438 732.73,-744.438 732.73,-744.438 732.73,-750.438 726.73,-756.438 720.73,-756.438 720.73,-756.438 513.329,-756.438 513.329,-756.438 507.329,-756.438 501.329,-750.438 501.329,-744.438 501.329,-744.438 501.329,-638.438 501.329,-638.438 501.329,-632.438 507.329,-626.438 513.329,-626.438"/>
<text text-anchor="middle" x="617.029" y="-741.238" font-family="Times,serif" font-size="14.00">Devise::OmniauthCallbacksController</text>
<polyline fill="none" stroke="black" points="501.329,-734.438 732.73,-734.438 "/>
<text text-anchor="start" x="509.329" y="-719.238" font-family="Times,serif" font-size="14.00">failure</text>
<text text-anchor="start" x="509.329" y="-705.238" font-family="Times,serif" font-size="14.00">passthru</text>
<polyline fill="none" stroke="black" points="501.329,-698.438 732.73,-698.438 "/>
<text text-anchor="start" x="509.329" y="-683.238" font-family="Times,serif" font-size="14.00">after_omniauth_failure_path_for</text>
<text text-anchor="start" x="509.329" y="-669.238" font-family="Times,serif" font-size="14.00">failed_strategy</text>
<text text-anchor="start" x="509.329" y="-655.238" font-family="Times,serif" font-size="14.00">failure_message</text>
<polyline fill="none" stroke="black" points="501.329,-648.438 732.73,-648.438 "/>
<text text-anchor="start" x="509.329" y="-633.238" font-family="Times,serif" font-size="14.00">_layout</text>
</g>
<!-- Devise::PasswordsController -->
<g id="node14" class="node"><title>Devise::PasswordsController</title>
<path fill="none" stroke="black" d="M1012.59,-339.72C1012.59,-339.72 1300.86,-339.72 1300.86,-339.72 1306.86,-339.72 1312.86,-345.72 1312.86,-351.72 1312.86,-351.72 1312.86,-499.72 1312.86,-499.72 1312.86,-505.72 1306.86,-511.72 1300.86,-511.72 1300.86,-511.72 1012.59,-511.72 1012.59,-511.72 1006.59,-511.72 1000.59,-505.72 1000.59,-499.72 1000.59,-499.72 1000.59,-351.72 1000.59,-351.72 1000.59,-345.72 1006.59,-339.72 1012.59,-339.72"/>
<text text-anchor="middle" x="1156.73" y="-496.52" font-family="Times,serif" font-size="14.00">Devise::PasswordsController</text>
<polyline fill="none" stroke="black" points="1000.59,-489.72 1312.86,-489.72 "/>
<text text-anchor="start" x="1008.59" y="-474.52" font-family="Times,serif" font-size="14.00">create</text>
<text text-anchor="start" x="1008.59" y="-460.52" font-family="Times,serif" font-size="14.00">edit</text>
<text text-anchor="start" x="1008.59" y="-446.52" font-family="Times,serif" font-size="14.00">new</text>
<text text-anchor="start" x="1008.59" y="-432.52" font-family="Times,serif" font-size="14.00">update</text>
<polyline fill="none" stroke="black" points="1000.59,-425.72 1312.86,-425.72 "/>
<text text-anchor="start" x="1008.59" y="-410.52" font-family="Times,serif" font-size="14.00">after_resetting_password_path_for</text>
<text text-anchor="start" x="1008.59" y="-396.52" font-family="Times,serif" font-size="14.00">after_sending_reset_password_instructions_path_for</text>
<text text-anchor="start" x="1008.59" y="-382.52" font-family="Times,serif" font-size="14.00">assert_reset_token_passed</text>
<text text-anchor="start" x="1008.59" y="-368.52" font-family="Times,serif" font-size="14.00">unlockable?</text>
<polyline fill="none" stroke="black" points="1000.59,-361.72 1312.86,-361.72 "/>
<text text-anchor="start" x="1008.59" y="-346.52" font-family="Times,serif" font-size="14.00">_layout</text>
</g>
<!-- Devise::RegistrationsController -->
<g id="node15" class="node"><title>Devise::RegistrationsController</title>
<path fill="none" stroke="black" d="M774.135,-688.003C774.135,-688.003 948.853,-688.003 948.853,-688.003 954.853,-688.003 960.853,-694.003 960.853,-700.003 960.853,-700.003 960.853,-960.003 960.853,-960.003 960.853,-966.003 954.853,-972.003 948.853,-972.003 948.853,-972.003 774.135,-972.003 774.135,-972.003 768.135,-972.003 762.135,-966.003 762.135,-960.003 762.135,-960.003 762.135,-700.003 762.135,-700.003 762.135,-694.003 768.135,-688.003 774.135,-688.003"/>
<text text-anchor="middle" x="861.494" y="-956.803" font-family="Times,serif" font-size="14.00">Devise::RegistrationsController</text>
<polyline fill="none" stroke="black" points="762.135,-950.003 960.853,-950.003 "/>
<text text-anchor="start" x="770.135" y="-934.803" font-family="Times,serif" font-size="14.00">cancel</text>
<text text-anchor="start" x="770.135" y="-920.803" font-family="Times,serif" font-size="14.00">create</text>
<text text-anchor="start" x="770.135" y="-906.803" font-family="Times,serif" font-size="14.00">destroy</text>
<text text-anchor="start" x="770.135" y="-892.803" font-family="Times,serif" font-size="14.00">edit</text>
<text text-anchor="start" x="770.135" y="-878.803" font-family="Times,serif" font-size="14.00">new</text>
<text text-anchor="start" x="770.135" y="-864.803" font-family="Times,serif" font-size="14.00">update</text>
<polyline fill="none" stroke="black" points="762.135,-858.003 960.853,-858.003 "/>
<text text-anchor="start" x="770.135" y="-842.803" font-family="Times,serif" font-size="14.00">account_update_params</text>
<text text-anchor="start" x="770.135" y="-828.803" font-family="Times,serif" font-size="14.00">after_inactive_sign_up_path_for</text>
<text text-anchor="start" x="770.135" y="-814.803" font-family="Times,serif" font-size="14.00">after_sign_up_path_for</text>
<text text-anchor="start" x="770.135" y="-800.803" font-family="Times,serif" font-size="14.00">after_update_path_for</text>
<text text-anchor="start" x="770.135" y="-786.803" font-family="Times,serif" font-size="14.00">authenticate_scope!</text>
<text text-anchor="start" x="770.135" y="-772.803" font-family="Times,serif" font-size="14.00">build_resource</text>
<text text-anchor="start" x="770.135" y="-758.803" font-family="Times,serif" font-size="14.00">sign_up</text>
<text text-anchor="start" x="770.135" y="-744.803" font-family="Times,serif" font-size="14.00">sign_up_params</text>
<text text-anchor="start" x="770.135" y="-730.803" font-family="Times,serif" font-size="14.00">update_needs_confirmation?</text>
<text text-anchor="start" x="770.135" y="-716.803" font-family="Times,serif" font-size="14.00">update_resource</text>
<polyline fill="none" stroke="black" points="762.135,-710.003 960.853,-710.003 "/>
<text text-anchor="start" x="770.135" y="-694.803" font-family="Times,serif" font-size="14.00">_layout</text>
</g>
<!-- Devise::RegistrationsController&#45;&gt;RegistrationsController -->
<g id="edge5" class="edge"><title>Devise::RegistrationsController&#45;&gt;RegistrationsController</title>
<path fill="none" stroke="black" d="M761.932,-947.367C729.631,-985.443 695.426,-1025.76 669.296,-1056.57"/>
</g>
<!-- Devise::SessionsController -->
<g id="node16" class="node"><title>Devise::SessionsController</title>
<path fill="none" stroke="black" d="M1110.92,-650.845C1110.92,-650.845 1255.35,-650.845 1255.35,-650.845 1261.35,-650.845 1267.35,-656.845 1267.35,-662.845 1267.35,-662.845 1267.35,-824.845 1267.35,-824.845 1267.35,-830.845 1261.35,-836.845 1255.35,-836.845 1255.35,-836.845 1110.92,-836.845 1110.92,-836.845 1104.92,-836.845 1098.92,-830.845 1098.92,-824.845 1098.92,-824.845 1098.92,-662.845 1098.92,-662.845 1098.92,-656.845 1104.92,-650.845 1110.92,-650.845"/>
<text text-anchor="middle" x="1183.13" y="-821.645" font-family="Times,serif" font-size="14.00">Devise::SessionsController</text>
<polyline fill="none" stroke="black" points="1098.92,-814.845 1267.35,-814.845 "/>
<text text-anchor="start" x="1106.92" y="-799.645" font-family="Times,serif" font-size="14.00">create</text>
<text text-anchor="start" x="1106.92" y="-785.645" font-family="Times,serif" font-size="14.00">destroy</text>
<text text-anchor="start" x="1106.92" y="-771.645" font-family="Times,serif" font-size="14.00">new</text>
<polyline fill="none" stroke="black" points="1098.92,-764.845 1267.35,-764.845 "/>
<text text-anchor="start" x="1106.92" y="-749.645" font-family="Times,serif" font-size="14.00">auth_options</text>
<text text-anchor="start" x="1106.92" y="-735.645" font-family="Times,serif" font-size="14.00">serialize_options</text>
<text text-anchor="start" x="1106.92" y="-721.645" font-family="Times,serif" font-size="14.00">sign_in_params</text>
<polyline fill="none" stroke="black" points="1098.92,-714.845 1267.35,-714.845 "/>
<text text-anchor="start" x="1106.92" y="-699.645" font-family="Times,serif" font-size="14.00">_layout</text>
<text text-anchor="start" x="1106.92" y="-685.645" font-family="Times,serif" font-size="14.00">all_signed_out?</text>
<text text-anchor="start" x="1106.92" y="-671.645" font-family="Times,serif" font-size="14.00">respond_to_on_destroy</text>
<text text-anchor="start" x="1106.92" y="-657.645" font-family="Times,serif" font-size="14.00">verify_signed_out_user</text>
</g>
<!-- Devise::SessionsController&#45;&gt;SessionsController -->
<g id="edge7" class="edge"><title>Devise::SessionsController&#45;&gt;SessionsController</title>
<path fill="none" stroke="black" d="M1165.85,-837.072C1152.74,-907.796 1135.29,-1001.93 1125.1,-1056.93"/>
</g>
<!-- Devise::UnlocksController -->
<g id="node17" class="node"><title>Devise::UnlocksController</title>
<path fill="none" stroke="black" d="M1070.42,-11.7158C1070.42,-11.7158 1310.47,-11.7158 1310.47,-11.7158 1316.47,-11.7158 1322.47,-17.7158 1322.47,-23.7158 1322.47,-23.7158 1322.47,-129.716 1322.47,-129.716 1322.47,-135.716 1316.47,-141.716 1310.47,-141.716 1310.47,-141.716 1070.42,-141.716 1070.42,-141.716 1064.42,-141.716 1058.42,-135.716 1058.42,-129.716 1058.42,-129.716 1058.42,-23.7158 1058.42,-23.7158 1058.42,-17.7158 1064.42,-11.7158 1070.42,-11.7158"/>
<text text-anchor="middle" x="1190.44" y="-126.516" font-family="Times,serif" font-size="14.00">Devise::UnlocksController</text>
<polyline fill="none" stroke="black" points="1058.42,-119.716 1322.47,-119.716 "/>
<text text-anchor="start" x="1066.42" y="-104.516" font-family="Times,serif" font-size="14.00">create</text>
<text text-anchor="start" x="1066.42" y="-90.5158" font-family="Times,serif" font-size="14.00">new</text>
<text text-anchor="start" x="1066.42" y="-76.5158" font-family="Times,serif" font-size="14.00">show</text>
<polyline fill="none" stroke="black" points="1058.42,-69.7158 1322.47,-69.7158 "/>
<text text-anchor="start" x="1066.42" y="-54.5158" font-family="Times,serif" font-size="14.00">after_sending_unlock_instructions_path_for</text>
<text text-anchor="start" x="1066.42" y="-40.5158" font-family="Times,serif" font-size="14.00">after_unlock_path_for</text>
<polyline fill="none" stroke="black" points="1058.42,-33.7158 1322.47,-33.7158 "/>
<text text-anchor="start" x="1066.42" y="-18.5158" font-family="Times,serif" font-size="14.00">_layout</text>
</g>
<!-- DeviseController&#45;&gt;Devise::ConfirmationsController -->
<g id="edge10" class="edge"><title>DeviseController&#45;&gt;Devise::ConfirmationsController</title>
<path fill="none" stroke="black" d="M839.548,-286.624C849.871,-236.632 860.641,-184.477 868.787,-145.033"/>
</g>
<!-- DeviseController&#45;&gt;Devise::OmniauthCallbacksController -->
<g id="edge11" class="edge"><title>DeviseController&#45;&gt;Devise::OmniauthCallbacksController</title>
<path fill="none" stroke="black" d="M721.388,-557.867C703.123,-581.245 684.356,-605.265 667.862,-626.376"/>
</g>
<!-- DeviseController&#45;&gt;Devise::PasswordsController -->
<g id="edge12" class="edge"><title>DeviseController&#45;&gt;Devise::PasswordsController</title>
<path fill="none" stroke="black" d="M890.35,-443.959C923.503,-441.689 962.646,-439.009 1000.57,-436.412"/>
</g>
<!-- DeviseController&#45;&gt;Devise::RegistrationsController -->
<g id="edge13" class="edge"><title>DeviseController&#45;&gt;Devise::RegistrationsController</title>
<path fill="none" stroke="black" d="M829.738,-612.939C833.392,-637.917 837.139,-663.528 840.719,-688.001"/>
</g>
<!-- DeviseController&#45;&gt;Devise::SessionsController -->
<g id="edge14" class="edge"><title>DeviseController&#45;&gt;Devise::SessionsController</title>
<path fill="none" stroke="black" d="M890.529,-515.746C952.663,-564.182 1036.68,-629.679 1098.75,-678.063"/>
</g>
<!-- DeviseController&#45;&gt;Devise::UnlocksController -->
<g id="edge15" class="edge"><title>DeviseController&#45;&gt;Devise::UnlocksController</title>
<path fill="none" stroke="black" d="M890.261,-367.881C960.242,-300.003 1058.41,-204.782 1123.18,-141.962"/>
</g>
</g>
</svg>
