<?xml version="1.0" encoding="UTF-8" standalone="no"?>
<!DOCTYPE svg PUBLIC "-//W3C//DTD SVG 1.1//EN"
 "http://www.w3.org/Graphics/SVG/1.1/DTD/svg11.dtd">
<!-- Generated by graphviz version 2.36.0 (20140111.2315)
 -->
<!-- Title: models_diagram Pages: 1 -->
<svg width="643pt" height="514pt"
 viewBox="0.00 0.00 643.00 514.00" xmlns="http://www.w3.org/2000/svg" xmlns:xlink="http://www.w3.org/1999/xlink">
<g id="graph0" class="graph" transform="scale(1 1) rotate(0) translate(4 510)">
<title>models_diagram</title>
<polygon fill="white" stroke="none" points="-4,4 -4,-510 639,-510 639,4 -4,4"/>
<!-- _diagram_info -->
<g id="node1" class="node"><title>_diagram_info</title>
<text text-anchor="start" x="7.55029" y="-491.1" font-family="Times,serif" font-size="13.00">Models diagram</text>
<text text-anchor="start" x="7.55029" y="-478.1" font-family="Times,serif" font-size="13.00">Date: Mar 13 2015 &#45; 12:10</text>
<text text-anchor="start" x="7.55029" y="-465.1" font-family="Times,serif" font-size="13.00">Migration version: 20150312211208</text>
<text text-anchor="start" x="7.55029" y="-452.1" font-family="Times,serif" font-size="13.00">Generated by RailRoady 1.3.0</text>
<text text-anchor="start" x="7.55029" y="-439.1" font-family="Times,serif" font-size="13.00">http://railroady.prestonlee.com</text>
</g>
<!-- Address -->
<g id="node2" class="node"><title>Address</title>
<ellipse fill="none" stroke="black" cx="476" cy="-306" rx="39.135" ry="18"/>
<text text-anchor="middle" x="476" y="-301.8" font-family="Times,serif" font-size="14.00">Address</text>
</g>
<!-- User -->
<g id="node10" class="node"><title>User</title>
<ellipse fill="none" stroke="black" cx="396" cy="-234" rx="27" ry="18"/>
<text text-anchor="middle" x="396" y="-229.8" font-family="Times,serif" font-size="14.00">User</text>
</g>
<!-- Address&#45;&gt;User -->
<g id="edge1" class="edge"><title>Address&#45;&gt;User</title>
<path fill="none" stroke="#a10199" d="M451.009,-283.133C440.867,-274.259 429.22,-264.068 419.262,-255.354"/>
<polygon fill="#a10199" stroke="#a10199" points="451.115,-283.226 455.678,-293.198 454.878,-286.519 458.641,-289.811 458.641,-289.811 458.641,-289.811 454.878,-286.519 461.604,-286.424 451.115,-283.226 451.115,-283.226"/>
<polygon fill="#a10199" stroke="#a10199" points="419.224,-255.321 414.661,-245.349 415.461,-252.028 411.698,-248.736 411.698,-248.736 411.698,-248.736 415.461,-252.028 408.735,-252.122 419.224,-255.321 419.224,-255.321"/>
</g>
<!-- Contact -->
<g id="node3" class="node"><title>Contact</title>
<ellipse fill="none" stroke="black" cx="358" cy="-18" rx="37.4191" ry="18"/>
<text text-anchor="middle" x="358" y="-13.8" font-family="Times,serif" font-size="14.00">Contact</text>
</g>
<!-- Contact&#45;&gt;Address -->
<g id="edge3" class="edge"><title>Contact&#45;&gt;Address</title>
<path fill="none" stroke="#c4b7b2" d="M380.902,-39.8824C389.787,-49.0087 399.392,-60.2941 406,-72 445.304,-141.628 464.756,-235.685 472.225,-279.971"/>
<ellipse fill="none" stroke="#c4b7b2" cx="378.041" cy="-37.0356" rx="4.00002" ry="4.00002"/>
<ellipse fill="#c4b7b2" stroke="#c4b7b2" cx="472.875" cy="-283.946" rx="4.00001" ry="4.00001"/>
</g>
<!-- Groundskeeper -->
<g id="node4" class="node"><title>Groundskeeper</title>
<ellipse fill="none" stroke="black" cx="543" cy="-162" rx="64.196" ry="18"/>
<text text-anchor="middle" x="543" y="-157.8" font-family="Times,serif" font-size="14.00">Groundskeeper</text>
</g>
<!-- Insurance -->
<g id="node5" class="node"><title>Insurance</title>
<ellipse fill="none" stroke="black" cx="105" cy="-90" rx="44.2185" ry="18"/>
<text text-anchor="middle" x="105" y="-85.8" font-family="Times,serif" font-size="14.00">Insurance</text>
</g>
<!-- Insurance&#45;&gt;Contact -->
<g id="edge7" class="edge"><title>Insurance&#45;&gt;Contact</title>
<path fill="none" stroke="#278a9f" d="M148.282,-77.0248C195.427,-63.9807 270.292,-43.2671 316.659,-30.4382"/>
<ellipse fill="none" stroke="#278a9f" cx="144.3" cy="-78.1264" rx="4.00001" ry="4.00001"/>
<polygon fill="#278a9f" stroke="#278a9f" points="316.745,-30.4144 327.583,-32.0848 321.564,-29.0811 326.383,-27.7477 326.383,-27.7477 326.383,-27.7477 321.564,-29.0811 325.183,-23.4107 316.745,-30.4144 316.745,-30.4144"/>
</g>
<!-- Item -->
<g id="node6" class="node"><title>Item</title>
<ellipse fill="none" stroke="black" cx="186" cy="-162" rx="27" ry="18"/>
<text text-anchor="middle" x="186" y="-157.8" font-family="Times,serif" font-size="14.00">Item</text>
</g>
<!-- Insurance&#45;&gt;Item -->
<g id="edge6" class="edge"><title>Insurance&#45;&gt;Item</title>
<path fill="none" stroke="#dddaf3" d="M134.134,-110.86C144.905,-119.539 156.79,-129.757 166.53,-138.696"/>
<ellipse fill="none" stroke="#dddaf3" cx="130.736" cy="-108.165" rx="4.00002" ry="4.00002"/>
<polygon fill="#dddaf3" stroke="#dddaf3" points="166.815,-138.964 171.021,-149.091 170.459,-142.387 174.103,-145.811 174.103,-145.811 174.103,-145.811 170.459,-142.387 177.184,-142.531 166.815,-138.964 166.815,-138.964"/>
</g>
<!-- Reminder -->
<g id="node8" class="node"><title>Reminder</title>
<ellipse fill="none" stroke="black" cx="186" cy="-18" rx="44.4699" ry="18"/>
<text text-anchor="middle" x="186" y="-13.8" font-family="Times,serif" font-size="14.00">Reminder</text>
</g>
<!-- Insurance&#45;&gt;Reminder -->
<g id="edge8" class="edge"><title>Insurance&#45;&gt;Reminder</title>
<path fill="none" stroke="#6909fb" d="M129.242,-68.0499C139.084,-59.545 150.461,-49.7128 160.433,-41.0947"/>
<ellipse fill="none" stroke="#6909fb" cx="126.003" cy="-70.8493" rx="4.00002" ry="4.00002"/>
<polygon fill="#6909fb" stroke="#6909fb" points="160.508,-41.0305 171.016,-37.8966 164.291,-37.7612 168.074,-34.4918 168.074,-34.4918 168.074,-34.4918 164.291,-37.7612 165.131,-31.0871 160.508,-41.0305 160.508,-41.0305"/>
</g>
<!-- Item&#45;&gt;Contact -->
<g id="edge10" class="edge"><title>Item&#45;&gt;Contact</title>
<path fill="none" stroke="#d3a8f9" d="M199.032,-137.689C210.85,-118.187 229.788,-90.6402 252,-72 271.955,-55.2546 298.099,-42.109 319.429,-33.0984"/>
<ellipse fill="none" stroke="#d3a8f9" cx="196.898" cy="-141.292" rx="4.00002" ry="4.00002"/>
<polygon fill="#d3a8f9" stroke="#d3a8f9" points="319.593,-33.0314 330.552,-33.4174 324.222,-31.1413 328.851,-29.2513 328.851,-29.2513 328.851,-29.2513 324.222,-31.1413 327.15,-25.0852 319.593,-33.0314 319.593,-33.0314"/>
</g>
<!-- Item&#45;&gt;Insurance -->
<g id="edge13" class="edge"><title>Item&#45;&gt;Insurance</title>
<path fill="none" stroke="#7c0816" d="M160.396,-143.961C149.206,-135.098 136.334,-124.126 125.746,-114.471"/>
<ellipse fill="none" stroke="#7c0816" cx="163.884" cy="-146.671" rx="4.00002" ry="4.00002"/>
<polygon fill="#7c0816" stroke="#7c0816" points="125.476,-114.22 121.228,-104.11 121.818,-110.811 118.16,-107.402 118.16,-107.402 118.16,-107.402 121.818,-110.811 115.092,-110.694 125.476,-114.22 125.476,-114.22"/>
</g>
<!-- Item&#45;&gt;Reminder -->
<g id="edge11" class="edge"><title>Item&#45;&gt;Reminder</title>
<path fill="none" stroke="#2f5e78" d="M180.703,-135.863C178.824,-110.794 178.768,-72.3884 180.533,-46.5141"/>
<ellipse fill="none" stroke="#2f5e78" cx="181.088" cy="-140.169" rx="4" ry="4"/>
<polygon fill="#2f5e78" stroke="#2f5e78" points="180.557,-46.2321 185.885,-36.6477 180.979,-41.25 181.401,-36.2678 181.401,-36.2678 181.401,-36.2678 180.979,-41.25 176.917,-35.8879 180.557,-46.2321 180.557,-46.2321"/>
</g>
<!-- Warranty -->
<g id="node11" class="node"><title>Warranty</title>
<ellipse fill="none" stroke="black" cx="304" cy="-90" rx="42.1887" ry="18"/>
<text text-anchor="middle" x="304" y="-85.8" font-family="Times,serif" font-size="14.00">Warranty</text>
</g>
<!-- Item&#45;&gt;Warranty -->
<g id="edge12" class="edge"><title>Item&#45;&gt;Warranty</title>
<path fill="none" stroke="#708f73" d="M212.626,-145.205C230.136,-134.817 253.158,-121.161 271.712,-110.154"/>
<ellipse fill="none" stroke="#708f73" cx="208.926" cy="-147.4" rx="4.00002" ry="4.00002"/>
<polygon fill="#708f73" stroke="#708f73" points="271.817,-110.092 282.714,-108.86 276.118,-107.54 280.418,-104.989 280.418,-104.989 280.418,-104.989 276.118,-107.54 278.122,-101.119 271.817,-110.092 271.817,-110.092"/>
</g>
<!-- Property -->
<g id="node7" class="node"><title>Property</title>
<ellipse fill="none" stroke="black" cx="340" cy="-378" rx="40.3432" ry="18"/>
<text text-anchor="middle" x="340" y="-373.8" font-family="Times,serif" font-size="14.00">Property</text>
</g>
<!-- Property&#45;&gt;Address -->
<g id="edge20" class="edge"><title>Property&#45;&gt;Address</title>
<path fill="none" stroke="#60d759" d="M372.764,-360.136C394.279,-349.062 422.297,-334.641 443.715,-323.617"/>
<ellipse fill="none" stroke="#60d759" cx="369.137" cy="-362.003" rx="4.00002" ry="4.00002"/>
<ellipse fill="#60d759" stroke="#60d759" cx="447.437" cy="-321.702" rx="4.00002" ry="4.00002"/>
</g>
<!-- Property&#45;&gt;Groundskeeper -->
<g id="edge16" class="edge"><title>Property&#45;&gt;Groundskeeper</title>
<path fill="none" stroke="#71b346" d="M388.781,-377.036C431.206,-374.242 490.921,-362.963 524,-324 555.695,-286.667 553.082,-225.706 548.156,-190.482"/>
<ellipse fill="none" stroke="#71b346" cx="384.534" cy="-377.269" rx="4" ry="4"/>
<polygon fill="#71b346" stroke="#71b346" points="548.13,-190.313 551.035,-179.739 547.359,-185.372 546.589,-180.432 546.589,-180.432 546.589,-180.432 547.359,-185.372 542.143,-181.126 548.13,-190.313 548.13,-190.313"/>
</g>
<!-- Property&#45;&gt;Insurance -->
<g id="edge18" class="edge"><title>Property&#45;&gt;Insurance</title>
<path fill="none" stroke="#a22bd6" d="M312.789,-357.391C300.206,-347.851 285.349,-335.892 273,-324 212.374,-265.614 196.655,-250.055 150,-180 136.658,-159.967 124.537,-135.446 116.245,-117.219"/>
<ellipse fill="none" stroke="#a22bd6" cx="316.313" cy="-360.03" rx="4.00002" ry="4.00002"/>
<polygon fill="#a22bd6" stroke="#a22bd6" points="116.235,-117.197 116.269,-106.231 114.197,-112.631 112.16,-108.065 112.16,-108.065 112.16,-108.065 114.197,-112.631 108.05,-109.898 116.235,-117.197 116.235,-117.197"/>
</g>
<!-- Property&#45;&gt;Item -->
<g id="edge21" class="edge"><title>Property&#45;&gt;Item</title>
<path fill="none" stroke="#267d4e" d="M323.437,-353.983C294.01,-313.092 232.915,-228.194 203.105,-186.769"/>
<ellipse fill="none" stroke="#267d4e" cx="325.835" cy="-357.316" rx="4.00002" ry="4.00002"/>
<polygon fill="#267d4e" stroke="#267d4e" points="203.082,-186.738 200.894,-175.992 200.162,-182.679 197.241,-178.621 197.241,-178.621 197.241,-178.621 200.162,-182.679 193.589,-181.249 203.082,-186.738 203.082,-186.738"/>
</g>
<!-- Room -->
<g id="node9" class="node"><title>Room</title>
<ellipse fill="none" stroke="black" cx="159" cy="-306" rx="31.5903" ry="18"/>
<text text-anchor="middle" x="159" y="-301.8" font-family="Times,serif" font-size="14.00">Room</text>
</g>
<!-- Property&#45;&gt;Room -->
<g id="edge15" class="edge"><title>Property&#45;&gt;Room</title>
<path fill="none" stroke="#e175f4" d="M302.798,-362.613C270.886,-350.271 225.237,-332.616 193.983,-320.529"/>
<ellipse fill="none" stroke="#e175f4" cx="306.786" cy="-364.155" rx="4.00001" ry="4.00001"/>
<polygon fill="#e175f4" stroke="#e175f4" points="193.704,-320.422 186,-312.617 189.041,-318.618 184.377,-316.814 184.377,-316.814 184.377,-316.814 189.041,-318.618 182.754,-321.011 193.704,-320.422 193.704,-320.422"/>
</g>
<!-- Property&#45;&gt;User -->
<g id="edge17" class="edge"><title>Property&#45;&gt;User</title>
<path fill="none" stroke="#5738eb" d="M350.376,-350.688C360.436,-325.179 375.61,-286.703 385.658,-261.224"/>
<polygon fill="#5738eb" stroke="#5738eb" points="350.313,-350.85 342.458,-358.502 348.478,-355.502 346.644,-360.153 346.644,-360.153 346.644,-360.153 348.478,-355.502 350.83,-361.804 350.313,-350.85 350.313,-350.85"/>
<polygon fill="#5738eb" stroke="#5738eb" points="385.696,-261.128 393.551,-253.476 387.53,-256.476 389.365,-251.825 389.365,-251.825 389.365,-251.825 387.53,-256.476 385.179,-250.174 385.696,-261.128 385.696,-261.128"/>
</g>
<!-- Property&#45;&gt;Warranty -->
<g id="edge19" class="edge"><title>Property&#45;&gt;Warranty</title>
<path fill="none" stroke="#5868c9" d="M336.834,-351.847C330.105,-298.388 314.427,-173.835 307.452,-118.425"/>
<ellipse fill="none" stroke="#5868c9" cx="337.356" cy="-355.997" rx="4.00001" ry="4.00001"/>
<polygon fill="#5868c9" stroke="#5868c9" points="307.427,-118.228 310.643,-107.744 306.803,-113.267 306.178,-108.306 306.178,-108.306 306.178,-108.306 306.803,-113.267 301.714,-108.868 307.427,-118.228 307.427,-118.228"/>
</g>
<!-- Reminder&#45;&gt;Item -->
<g id="edge23" class="edge"><title>Reminder&#45;&gt;Item</title>
<path fill="none" stroke="#8baf7b" d="M191.307,-44.2737C193.188,-69.5087 193.23,-108.157 191.433,-133.987"/>
<ellipse fill="none" stroke="#8baf7b" cx="190.952" cy="-40.2522" rx="4" ry="4"/>
<polygon fill="#8baf7b" stroke="#8baf7b" points="191.415,-134.19 186.071,-143.766 190.985,-139.172 190.555,-144.153 190.555,-144.153 190.555,-144.153 190.985,-139.172 195.038,-144.54 191.415,-134.19 191.415,-134.19"/>
</g>
<!-- Room&#45;&gt;Item -->
<g id="edge25" class="edge"><title>Room&#45;&gt;Item</title>
<path fill="none" stroke="#241300" d="M163.767,-279.929C168.559,-254.725 175.924,-215.994 180.848,-190.095"/>
<ellipse fill="none" stroke="#241300" cx="163.004" cy="-283.942" rx="4.00001" ry="4.00001"/>
<polygon fill="#241300" stroke="#241300" points="180.864,-190.013 187.152,-181.03 181.798,-185.101 182.732,-180.189 182.732,-180.189 182.732,-180.189 181.798,-185.101 178.311,-179.349 180.864,-190.013 180.864,-190.013"/>
</g>
<!-- User&#45;&gt;Contact -->
<g id="edge29" class="edge"><title>User&#45;&gt;Contact</title>
<path fill="none" stroke="#4b4b1b" d="M398.599,-207.608C401.069,-175.354 402.638,-118.318 389,-72 386.126,-62.2376 381.084,-52.3856 375.891,-43.8686"/>
<ellipse fill="none" stroke="#4b4b1b" cx="398.26" cy="-211.65" rx="4" ry="4"/>
<polygon fill="#4b4b1b" stroke="#4b4b1b" points="375.726,-43.6132 374.07,-32.773 373.009,-39.4156 370.292,-35.218 370.292,-35.218 370.292,-35.218 373.009,-39.4156 366.514,-37.663 375.726,-43.6132 375.726,-43.6132"/>
</g>
<!-- User&#45;&gt;Groundskeeper -->
<g id="edge27" class="edge"><title>User&#45;&gt;Groundskeeper</title>
<path fill="none" stroke="#872356" d="M424.77,-219.3C446.995,-208.717 478.025,-193.94 502.719,-182.181"/>
<ellipse fill="none" stroke="#872356" cx="420.987" cy="-221.102" rx="4.00002" ry="4.00002"/>
<polygon fill="#872356" stroke="#872356" points="502.813,-182.137 513.777,-181.9 507.328,-179.987 511.842,-177.837 511.842,-177.837 511.842,-177.837 507.328,-179.987 509.907,-173.774 502.813,-182.137 502.813,-182.137"/>
</g>
<!-- User&#45;&gt;Item -->
<g id="edge28" class="edge"><title>User&#45;&gt;Item</title>
<path fill="none" stroke="#a33e60" d="M364.536,-222.512C325.428,-209.476 258.987,-187.329 219.124,-174.041"/>
<ellipse fill="none" stroke="#a33e60" cx="368.524" cy="-223.841" rx="4.00001" ry="4.00001"/>
<polygon fill="#a33e60" stroke="#a33e60" points="219.082,-174.027 211.018,-166.596 214.338,-172.446 209.595,-170.865 209.595,-170.865 209.595,-170.865 214.338,-172.446 208.172,-175.134 219.082,-174.027 219.082,-174.027"/>
</g>
<!-- User&#45;&gt;Reminder -->
<g id="edge30" class="edge"><title>User&#45;&gt;Reminder</title>
<path fill="none" stroke="#5c0315" d="M392.641,-208.002C386.766,-167.849 373.469,-91.5042 355,-72 325.336,-40.6722 277.422,-27.764 240.174,-22.4951"/>
<ellipse fill="none" stroke="#5c0315" cx="393.216" cy="-212.028" rx="4.00001" ry="4.00001"/>
<polygon fill="#5c0315" stroke="#5c0315" points="239.896,-22.4599 230.541,-16.7383 234.935,-21.8312 229.975,-21.2026 229.975,-21.2026 229.975,-21.2026 234.935,-21.8312 229.409,-25.6669 239.896,-22.4599 239.896,-22.4599"/>
</g>
<!-- Warranty&#45;&gt;Contact -->
<g id="edge33" class="edge"><title>Warranty&#45;&gt;Contact</title>
<path fill="none" stroke="#b67d23" d="M321.471,-66.3523C327.112,-59.0401 333.389,-50.9028 339.127,-43.4653"/>
<ellipse fill="none" stroke="#b67d23" cx="318.968" cy="-69.5975" rx="4.00002" ry="4.00002"/>
<polygon fill="#b67d23" stroke="#b67d23" points="339.435,-43.0651 349.107,-37.8959 342.489,-39.1062 345.544,-35.1473 345.544,-35.1473 345.544,-35.1473 342.489,-39.1062 341.98,-32.3987 339.435,-43.0651 339.435,-43.0651"/>
</g>
<!-- Warranty&#45;&gt;Reminder -->
<g id="edge32" class="edge"><title>Warranty&#45;&gt;Reminder</title>
<path fill="none" stroke="#a505f5" d="M273.396,-70.8451C256.713,-60.9482 236.052,-48.6917 219.008,-38.5808"/>
<ellipse fill="none" stroke="#a505f5" cx="276.964" cy="-72.9619" rx="4.00002" ry="4.00002"/>
<polygon fill="#a505f5" stroke="#a505f5" points="218.56,-38.315 212.255,-29.3427 214.259,-35.764 209.959,-33.213 209.959,-33.213 209.959,-33.213 214.259,-35.764 207.663,-37.0832 218.56,-38.315 218.56,-38.315"/>
</g>
<!-- ActiveRecord::Base -->
<g id="node12" class="node"><title>ActiveRecord::Base</title>
<ellipse fill="none" stroke="black" cx="306" cy="-469" rx="80.9821" ry="18"/>
<text text-anchor="middle" x="306" y="-464.8" font-family="Times,serif" font-size="14.00">ActiveRecord::Base</text>
</g>
<!-- ActiveRecord::Base&#45;&gt;Address -->
<g id="edge2" class="edge"><title>ActiveRecord::Base&#45;&gt;Address</title>
<path fill="none" stroke="black" d="M340.007,-452.63C365.122,-440.048 398.976,-420.376 423,-396 444.081,-374.61 460.212,-343.253 468.881,-324.035"/>
</g>
<!-- ActiveRecord::Base&#45;&gt;Contact -->
<g id="edge4" class="edge"><title>ActiveRecord::Base&#45;&gt;Contact</title>
<path fill="none" stroke="black" d="M383.136,-463.358C480.378,-452.853 635,-418.601 635,-307 635,-307 635,-307 635,-161 635,-54.2689 470.133,-27.7039 394.783,-21.1362"/>
</g>
<!-- ActiveRecord::Base&#45;&gt;Groundskeeper -->
<g id="edge5" class="edge"><title>ActiveRecord::Base&#45;&gt;Groundskeeper</title>
<path fill="none" stroke="black" d="M352.362,-454.076C408.391,-434.647 500.876,-393.712 547,-324 573.812,-283.476 573.111,-263.729 564,-216 561.625,-203.556 556.375,-190.306 551.718,-180.167"/>
</g>
<!-- ActiveRecord::Base&#45;&gt;Insurance -->
<g id="edge9" class="edge"><title>ActiveRecord::Base&#45;&gt;Insurance</title>
<path fill="none" stroke="black" d="M268.829,-452.878C223.359,-434.224 151.034,-403.995 140,-396 97.171,-364.966 61,-359.891 61,-307 61,-307 61,-307 61,-233 61,-186.027 83.239,-134.073 96.0959,-107.961"/>
</g>
<!-- ActiveRecord::Base&#45;&gt;Item -->
<g id="edge14" class="edge"><title>ActiveRecord::Base&#45;&gt;Item</title>
<path fill="none" stroke="black" d="M269.583,-452.831C224.156,-431.635 148.724,-388.375 118,-324 92.6457,-270.876 144.77,-205.809 171.505,-177.408"/>
</g>
<!-- ActiveRecord::Base&#45;&gt;Property -->
<g id="edge22" class="edge"><title>ActiveRecord::Base&#45;&gt;Property</title>
<path fill="none" stroke="black" d="M312.556,-450.84C318.615,-434.979 327.564,-411.553 333.58,-395.806"/>
</g>
<!-- ActiveRecord::Base&#45;&gt;Reminder -->
<g id="edge24" class="edge"><title>ActiveRecord::Base&#45;&gt;Reminder</title>
<path fill="none" stroke="black" d="M270.027,-452.708C253.432,-445.928 233.376,-438.12 215,-432 157.306,-412.786 132.423,-431.428 83,-396 44.2279,-368.207 23,-354.705 23,-307 23,-307 23,-307 23,-161 23,-119.398 23.5032,-102.31 52,-72 76.5908,-45.8445 115.718,-32.3585 145.357,-25.5567"/>
</g>
<!-- ActiveRecord::Base&#45;&gt;Room -->
<g id="edge26" class="edge"><title>ActiveRecord::Base&#45;&gt;Room</title>
<path fill="none" stroke="black" d="M290.546,-451.074C261.798,-419.588 200.521,-352.475 172.951,-322.279"/>
</g>
<!-- ActiveRecord::Base&#45;&gt;User -->
<g id="edge31" class="edge"><title>ActiveRecord::Base&#45;&gt;User</title>
<path fill="none" stroke="black" d="M334.528,-451.861C353.653,-439.328 377.387,-420.049 389,-396 412.115,-348.131 404.774,-282.632 399.453,-252.041"/>
</g>
<!-- ActiveRecord::Base&#45;&gt;Warranty -->
<g id="edge34" class="edge"><title>ActiveRecord::Base&#45;&gt;Warranty</title>
<path fill="none" stroke="black" d="M301.12,-451.01C297.229,-436.53 292.096,-415.093 290,-396 278.027,-286.93 294.57,-154.831 301.342,-108.257"/>
</g>
</g>
</svg>
