<?xml version="1.0" encoding="UTF-8" standalone="no"?>
<!DOCTYPE svg PUBLIC "-//W3C//DTD SVG 1.1//EN"
 "http://www.w3.org/Graphics/SVG/1.1/DTD/svg11.dtd">
<!-- Generated by graphviz version 2.36.0 (20140111.2315)
 -->
<!-- Title: models_diagram Pages: 1 -->
<svg width="854pt" height="1512pt"
 viewBox="0.00 0.00 853.68 1512.00" xmlns="http://www.w3.org/2000/svg" xmlns:xlink="http://www.w3.org/1999/xlink">
<g id="graph0" class="graph" transform="scale(1 1) rotate(0) translate(4 1508)">
<title>models_diagram</title>
<polygon fill="white" stroke="none" points="-4,4 -4,-1508 849.683,-1508 849.683,4 -4,4"/>
<!-- _diagram_info -->
<g id="node1" class="node"><title>_diagram_info</title>
<text text-anchor="start" x="55.6905" y="-1489.1" font-family="Times,serif" font-size="13.00">Models diagram</text>
<text text-anchor="start" x="55.6905" y="-1476.1" font-family="Times,serif" font-size="13.00">Date: Mar 13 2015 &#45; 12:10</text>
<text text-anchor="start" x="55.6905" y="-1463.1" font-family="Times,serif" font-size="13.00">Migration version: 20150312211208</text>
<text text-anchor="start" x="55.6905" y="-1450.1" font-family="Times,serif" font-size="13.00">Generated by RailRoady 1.3.0</text>
<text text-anchor="start" x="55.6905" y="-1437.1" font-family="Times,serif" font-size="13.00">http://railroady.prestonlee.com</text>
</g>
<!-- Address -->
<g id="node2" class="node"><title>Address</title>
<path fill="none" stroke="black" d="M567.807,-973C567.807,-973 702.473,-973 702.473,-973 708.473,-973 714.473,-979 714.473,-985 714.473,-985 714.473,-1145 714.473,-1145 714.473,-1151 708.473,-1157 702.473,-1157 702.473,-1157 567.807,-1157 567.807,-1157 561.807,-1157 555.807,-1151 555.807,-1145 555.807,-1145 555.807,-985 555.807,-985 555.807,-979 561.807,-973 567.807,-973"/>
<text text-anchor="middle" x="635.14" y="-1141.8" font-family="Times,serif" font-size="14.00">Address</text>
<polyline fill="none" stroke="black" points="555.807,-1135 714.473,-1135 "/>
<text text-anchor="start" x="563.807" y="-1119.8" font-family="Times,serif" font-size="14.00">id :integer</text>
<text text-anchor="start" x="563.807" y="-1105.8" font-family="Times,serif" font-size="14.00">street_address :string</text>
<text text-anchor="start" x="563.807" y="-1091.8" font-family="Times,serif" font-size="14.00">city :string</text>
<text text-anchor="start" x="563.807" y="-1077.8" font-family="Times,serif" font-size="14.00">state :string</text>
<text text-anchor="start" x="563.807" y="-1063.8" font-family="Times,serif" font-size="14.00">zipcode :string</text>
<text text-anchor="start" x="563.807" y="-1049.8" font-family="Times,serif" font-size="14.00">zpid :string</text>
<text text-anchor="start" x="563.807" y="-1035.8" font-family="Times,serif" font-size="14.00">addressable_id :integer</text>
<text text-anchor="start" x="563.807" y="-1021.8" font-family="Times,serif" font-size="14.00">addressable_type :integer</text>
<text text-anchor="start" x="563.807" y="-1007.8" font-family="Times,serif" font-size="14.00">property_id :integer</text>
<text text-anchor="start" x="563.807" y="-993.8" font-family="Times,serif" font-size="14.00">contact_id :integer</text>
<text text-anchor="start" x="563.807" y="-979.8" font-family="Times,serif" font-size="14.00">user_id :integer</text>
</g>
<!-- User -->
<g id="node10" class="node"><title>User</title>
<path fill="none" stroke="black" d="M451.862,-695C451.862,-695 632.418,-695 632.418,-695 638.418,-695 644.418,-701 644.418,-707 644.418,-707 644.418,-923 644.418,-923 644.418,-929 638.418,-935 632.418,-935 632.418,-935 451.862,-935 451.862,-935 445.862,-935 439.862,-929 439.862,-923 439.862,-923 439.862,-707 439.862,-707 439.862,-701 445.862,-695 451.862,-695"/>
<text text-anchor="middle" x="542.14" y="-919.8" font-family="Times,serif" font-size="14.00">User</text>
<polyline fill="none" stroke="black" points="439.862,-913 644.418,-913 "/>
<text text-anchor="start" x="447.862" y="-897.8" font-family="Times,serif" font-size="14.00">id :integer</text>
<text text-anchor="start" x="447.862" y="-883.8" font-family="Times,serif" font-size="14.00">email :string</text>
<text text-anchor="start" x="447.862" y="-869.8" font-family="Times,serif" font-size="14.00">encrypted_password :string</text>
<text text-anchor="start" x="447.862" y="-855.8" font-family="Times,serif" font-size="14.00">reset_password_token :string</text>
<text text-anchor="start" x="447.862" y="-841.8" font-family="Times,serif" font-size="14.00">reset_password_sent_at :datetime</text>
<text text-anchor="start" x="447.862" y="-827.8" font-family="Times,serif" font-size="14.00">remember_created_at :datetime</text>
<text text-anchor="start" x="447.862" y="-813.8" font-family="Times,serif" font-size="14.00">sign_in_count :integer</text>
<text text-anchor="start" x="447.862" y="-799.8" font-family="Times,serif" font-size="14.00">current_sign_in_at :datetime</text>
<text text-anchor="start" x="447.862" y="-785.8" font-family="Times,serif" font-size="14.00">last_sign_in_at :datetime</text>
<text text-anchor="start" x="447.862" y="-771.8" font-family="Times,serif" font-size="14.00">current_sign_in_ip :string</text>
<text text-anchor="start" x="447.862" y="-757.8" font-family="Times,serif" font-size="14.00">last_sign_in_ip :string</text>
<text text-anchor="start" x="447.862" y="-743.8" font-family="Times,serif" font-size="14.00">authentication_token :string</text>
<text text-anchor="start" x="447.862" y="-729.8" font-family="Times,serif" font-size="14.00">created_at :datetime</text>
<text text-anchor="start" x="447.862" y="-715.8" font-family="Times,serif" font-size="14.00">updated_at :datetime</text>
<text text-anchor="start" x="447.862" y="-701.8" font-family="Times,serif" font-size="14.00">address_id :integer</text>
</g>
<!-- Address&#45;&gt;User -->
<g id="edge1" class="edge"><title>Address&#45;&gt;User</title>
<path fill="none" stroke="#2e23a1" d="M597.351,-963.229C595.095,-957.213 592.811,-951.121 590.52,-945.012"/>
<polygon fill="#2e23a1" stroke="#2e23a1" points="597.395,-963.347 596.693,-974.291 599.151,-968.029 600.907,-972.71 600.907,-972.71 600.907,-972.71 599.151,-968.029 605.12,-971.13 597.395,-963.347 597.395,-963.347"/>
<polygon fill="#2e23a1" stroke="#2e23a1" points="590.43,-944.772 591.132,-933.829 588.674,-940.09 586.919,-935.409 586.919,-935.409 586.919,-935.409 588.674,-940.09 582.705,-936.989 590.43,-944.772 590.43,-944.772"/>
</g>
<!-- Contact -->
<g id="node3" class="node"><title>Contact</title>
<path fill="none" stroke="black" d="M421.407,-1C421.407,-1 556.873,-1 556.873,-1 562.873,-1 568.873,-7 568.873,-13 568.873,-13 568.873,-187 568.873,-187 568.873,-193 562.873,-199 556.873,-199 556.873,-199 421.407,-199 421.407,-199 415.407,-199 409.407,-193 409.407,-187 409.407,-187 409.407,-13 409.407,-13 409.407,-7 415.407,-1 421.407,-1"/>
<text text-anchor="middle" x="489.14" y="-183.8" font-family="Times,serif" font-size="14.00">Contact</text>
<polyline fill="none" stroke="black" points="409.407,-177 568.873,-177 "/>
<text text-anchor="start" x="417.407" y="-161.8" font-family="Times,serif" font-size="14.00">id :integer</text>
<text text-anchor="start" x="417.407" y="-147.8" font-family="Times,serif" font-size="14.00">name :string</text>
<text text-anchor="start" x="417.407" y="-133.8" font-family="Times,serif" font-size="14.00">company :string</text>
<text text-anchor="start" x="417.407" y="-119.8" font-family="Times,serif" font-size="14.00">telephone_number :string</text>
<text text-anchor="start" x="417.407" y="-105.8" font-family="Times,serif" font-size="14.00">email :string</text>
<text text-anchor="start" x="417.407" y="-91.8" font-family="Times,serif" font-size="14.00">url :string</text>
<text text-anchor="start" x="417.407" y="-77.8" font-family="Times,serif" font-size="14.00">notes :text</text>
<text text-anchor="start" x="417.407" y="-63.8" font-family="Times,serif" font-size="14.00">fax_number :string</text>
<text text-anchor="start" x="417.407" y="-49.8" font-family="Times,serif" font-size="14.00">created_at :datetime</text>
<text text-anchor="start" x="417.407" y="-35.8" font-family="Times,serif" font-size="14.00">updated_at :datetime</text>
<text text-anchor="start" x="417.407" y="-21.8" font-family="Times,serif" font-size="14.00">reachable_id :integer</text>
<text text-anchor="start" x="417.407" y="-7.8" font-family="Times,serif" font-size="14.00">reachable_type :string</text>
</g>
<!-- Contact&#45;&gt;Address -->
<g id="edge3" class="edge"><title>Contact&#45;&gt;Address</title>
<path fill="none" stroke="#b6e990" d="M543.833,-206.791C547.965,-216.54 551.813,-226.372 555.14,-236 657.756,-532.913 675.067,-622.621 653.14,-936 652.486,-945.357 651.565,-955.07 650.482,-964.774"/>
<ellipse fill="none" stroke="#b6e990" cx="542.208" cy="-203.029" rx="4.00002" ry="4.00002"/>
<ellipse fill="#b6e990" stroke="#b6e990" cx="649.999" cy="-968.943" rx="4.00001" ry="4.00001"/>
</g>
<!-- Groundskeeper -->
<g id="node4" class="node"><title>Groundskeeper</title>
<path fill="none" stroke="black" d="M701.352,-522C701.352,-522 804.928,-522 804.928,-522 810.928,-522 816.928,-528 816.928,-534 816.928,-534 816.928,-568 816.928,-568 816.928,-574 810.928,-580 804.928,-580 804.928,-580 701.352,-580 701.352,-580 695.352,-580 689.352,-574 689.352,-568 689.352,-568 689.352,-534 689.352,-534 689.352,-528 695.352,-522 701.352,-522"/>
<text text-anchor="middle" x="753.14" y="-564.8" font-family="Times,serif" font-size="14.00">Groundskeeper</text>
<polyline fill="none" stroke="black" points="689.352,-558 816.928,-558 "/>
<text text-anchor="start" x="697.352" y="-542.8" font-family="Times,serif" font-size="14.00">user_id :integer</text>
<text text-anchor="start" x="697.352" y="-528.8" font-family="Times,serif" font-size="14.00">property_id :integer</text>
</g>
<!-- Insurance -->
<g id="node5" class="node"><title>Insurance</title>
<path fill="none" stroke="black" d="M74.8072,-237C74.8072,-237 209.473,-237 209.473,-237 215.473,-237 221.473,-243 221.473,-249 221.473,-249 221.473,-395 221.473,-395 221.473,-401 215.473,-407 209.473,-407 209.473,-407 74.8072,-407 74.8072,-407 68.8072,-407 62.8072,-401 62.8072,-395 62.8072,-395 62.8072,-249 62.8072,-249 62.8072,-243 68.8072,-237 74.8072,-237"/>
<text text-anchor="middle" x="142.14" y="-391.8" font-family="Times,serif" font-size="14.00">Insurance</text>
<polyline fill="none" stroke="black" points="62.8072,-385 221.473,-385 "/>
<text text-anchor="start" x="70.8072" y="-369.8" font-family="Times,serif" font-size="14.00">id :integer</text>
<text text-anchor="start" x="70.8072" y="-355.8" font-family="Times,serif" font-size="14.00">created_at :datetime</text>
<text text-anchor="start" x="70.8072" y="-341.8" font-family="Times,serif" font-size="14.00">updated_at :datetime</text>
<text text-anchor="start" x="70.8072" y="-327.8" font-family="Times,serif" font-size="14.00">company :string</text>
<text text-anchor="start" x="70.8072" y="-313.8" font-family="Times,serif" font-size="14.00">description :text</text>
<text text-anchor="start" x="70.8072" y="-299.8" font-family="Times,serif" font-size="14.00">policy_number :integer</text>
<text text-anchor="start" x="70.8072" y="-285.8" font-family="Times,serif" font-size="14.00">expiration_date :datetime</text>
<text text-anchor="start" x="70.8072" y="-271.8" font-family="Times,serif" font-size="14.00">url :string</text>
<text text-anchor="start" x="70.8072" y="-257.8" font-family="Times,serif" font-size="14.00">notes :text</text>
<text text-anchor="start" x="70.8072" y="-243.8" font-family="Times,serif" font-size="14.00">item_id :integer</text>
</g>
<!-- Insurance&#45;&gt;Contact -->
<g id="edge7" class="edge"><title>Insurance&#45;&gt;Contact</title>
<path fill="none" stroke="#59860a" d="M228.518,-266.299C261.288,-245.542 298.941,-221.685 333.14,-200 355.023,-186.125 378.628,-171.149 400.69,-157.149"/>
<ellipse fill="none" stroke="#59860a" cx="224.982" cy="-268.539" rx="4.00002" ry="4.00002"/>
<polygon fill="#59860a" stroke="#59860a" points="400.943,-156.989 411.797,-155.43 405.164,-154.309 409.386,-151.63 409.386,-151.63 409.386,-151.63 405.164,-154.309 406.975,-147.831 400.943,-156.989 400.943,-156.989"/>
</g>
<!-- Item -->
<g id="node6" class="node"><title>Item</title>
<path fill="none" stroke="black" d="M194.311,-445C194.311,-445 321.97,-445 321.97,-445 327.97,-445 333.97,-451 333.97,-457 333.97,-457 333.97,-645 333.97,-645 333.97,-651 327.97,-657 321.97,-657 321.97,-657 194.311,-657 194.311,-657 188.311,-657 182.311,-651 182.311,-645 182.311,-645 182.311,-457 182.311,-457 182.311,-451 188.311,-445 194.311,-445"/>
<text text-anchor="middle" x="258.14" y="-641.8" font-family="Times,serif" font-size="14.00">Item</text>
<polyline fill="none" stroke="black" points="182.311,-635 333.97,-635 "/>
<text text-anchor="start" x="190.311" y="-619.8" font-family="Times,serif" font-size="14.00">id :integer</text>
<text text-anchor="start" x="190.311" y="-605.8" font-family="Times,serif" font-size="14.00">category :string</text>
<text text-anchor="start" x="190.311" y="-591.8" font-family="Times,serif" font-size="14.00">name :string</text>
<text text-anchor="start" x="190.311" y="-577.8" font-family="Times,serif" font-size="14.00">purchase_date :datetime</text>
<text text-anchor="start" x="190.311" y="-563.8" font-family="Times,serif" font-size="14.00">serial_number :string</text>
<text text-anchor="start" x="190.311" y="-549.8" font-family="Times,serif" font-size="14.00">price :float</text>
<text text-anchor="start" x="190.311" y="-535.8" font-family="Times,serif" font-size="14.00">condition :string</text>
<text text-anchor="start" x="190.311" y="-521.8" font-family="Times,serif" font-size="14.00">created_at :datetime</text>
<text text-anchor="start" x="190.311" y="-507.8" font-family="Times,serif" font-size="14.00">updated_at :datetime</text>
<text text-anchor="start" x="190.311" y="-493.8" font-family="Times,serif" font-size="14.00">room_id :integer</text>
<text text-anchor="start" x="190.311" y="-479.8" font-family="Times,serif" font-size="14.00">property_id :integer</text>
<text text-anchor="start" x="190.311" y="-465.8" font-family="Times,serif" font-size="14.00">warranty_id :integer</text>
<text text-anchor="start" x="190.311" y="-451.8" font-family="Times,serif" font-size="14.00">insurance_id :integer</text>
</g>
<!-- Insurance&#45;&gt;Item -->
<g id="edge6" class="edge"><title>Insurance&#45;&gt;Item</title>
<path fill="none" stroke="#878298" d="M195.573,-414.574C199.188,-421.508 202.827,-428.555 206.433,-435.606"/>
<ellipse fill="none" stroke="#878298" cx="193.516" cy="-410.644" rx="4.00002" ry="4.00002"/>
<polygon fill="#878298" stroke="#878298" points="206.581,-435.895 207.109,-446.849 208.85,-440.351 211.119,-444.806 211.119,-444.806 211.119,-444.806 208.85,-440.351 215.129,-442.764 206.581,-435.895 206.581,-435.895"/>
</g>
<!-- Reminder -->
<g id="node8" class="node"><title>Reminder</title>
<path fill="none" stroke="black" d="M203.635,-36C203.635,-36 312.646,-36 312.646,-36 318.646,-36 324.646,-42 324.646,-48 324.646,-48 324.646,-152 324.646,-152 324.646,-158 318.646,-164 312.646,-164 312.646,-164 203.635,-164 203.635,-164 197.635,-164 191.635,-158 191.635,-152 191.635,-152 191.635,-48 191.635,-48 191.635,-42 197.635,-36 203.635,-36"/>
<text text-anchor="middle" x="258.14" y="-148.8" font-family="Times,serif" font-size="14.00">Reminder</text>
<polyline fill="none" stroke="black" points="191.635,-142 324.646,-142 "/>
<text text-anchor="start" x="199.635" y="-126.8" font-family="Times,serif" font-size="14.00">id :integer</text>
<text text-anchor="start" x="199.635" y="-112.8" font-family="Times,serif" font-size="14.00">start_date :datetime</text>
<text text-anchor="start" x="199.635" y="-98.8" font-family="Times,serif" font-size="14.00">name :string</text>
<text text-anchor="start" x="199.635" y="-84.8" font-family="Times,serif" font-size="14.00">description :string</text>
<text text-anchor="start" x="199.635" y="-70.8" font-family="Times,serif" font-size="14.00">frequency :string</text>
<text text-anchor="start" x="199.635" y="-56.8" font-family="Times,serif" font-size="14.00">created_at :datetime</text>
<text text-anchor="start" x="199.635" y="-42.8" font-family="Times,serif" font-size="14.00">updated_at :datetime</text>
</g>
<!-- Insurance&#45;&gt;Reminder -->
<g id="edge8" class="edge"><title>Insurance&#45;&gt;Reminder</title>
<path fill="none" stroke="#adfa30" d="M190.244,-229.768C200.145,-210.991 210.441,-191.463 219.934,-173.459"/>
<ellipse fill="none" stroke="#adfa30" cx="188.357" cy="-233.347" rx="4.00002" ry="4.00002"/>
<polygon fill="#adfa30" stroke="#adfa30" points="220.155,-173.041 228.799,-166.295 222.487,-168.619 224.819,-164.196 224.819,-164.196 224.819,-164.196 222.487,-168.619 220.838,-162.097 220.155,-173.041 220.155,-173.041"/>
</g>
<!-- Item&#45;&gt;Contact -->
<g id="edge10" class="edge"><title>Item&#45;&gt;Contact</title>
<path fill="none" stroke="#9d908a" d="M278.137,-436.819C293.388,-354.11 313.525,-253.466 324.14,-236 343.293,-204.488 372.53,-177.055 401.101,-155.301"/>
<ellipse fill="none" stroke="#9d908a" cx="277.4" cy="-440.829" rx="4.00001" ry="4.00001"/>
<polygon fill="#9d908a" stroke="#9d908a" points="401.114,-155.291 411.821,-152.925 405.123,-152.304 409.133,-149.317 409.133,-149.317 409.133,-149.317 405.123,-152.304 406.444,-145.708 401.114,-155.291 401.114,-155.291"/>
</g>
<!-- Item&#45;&gt;Insurance -->
<g id="edge13" class="edge"><title>Item&#45;&gt;Insurance</title>
<path fill="none" stroke="#26d955" d="M193.996,-437.685C190.293,-430.447 186.623,-423.201 183.047,-416.068"/>
<ellipse fill="none" stroke="#26d955" cx="195.825" cy="-441.248" rx="4.00002" ry="4.00002"/>
<polygon fill="#26d955" stroke="#26d955" points="183.037,-416.048 182.598,-405.09 180.805,-411.574 178.572,-407.1 178.572,-407.1 178.572,-407.1 180.805,-411.574 174.545,-409.109 183.037,-416.048 183.037,-416.048"/>
</g>
<!-- Item&#45;&gt;Reminder -->
<g id="edge11" class="edge"><title>Item&#45;&gt;Reminder</title>
<path fill="none" stroke="#5e463a" d="M252.188,-436.729C250.902,-354.415 251.171,-245.406 252.996,-174.266"/>
<ellipse fill="none" stroke="#5e463a" cx="252.254" cy="-440.73" rx="4" ry="4"/>
<polygon fill="#5e463a" stroke="#5e463a" points="253.002,-174.049 257.775,-164.176 253.14,-169.05 253.277,-164.052 253.277,-164.052 253.277,-164.052 253.14,-169.05 248.779,-163.929 253.002,-174.049 253.002,-174.049"/>
</g>
<!-- Warranty -->
<g id="node11" class="node"><title>Warranty</title>
<path fill="none" stroke="black" d="M344.807,-237C344.807,-237 479.473,-237 479.473,-237 485.473,-237 491.473,-243 491.473,-249 491.473,-249 491.473,-395 491.473,-395 491.473,-401 485.473,-407 479.473,-407 479.473,-407 344.807,-407 344.807,-407 338.807,-407 332.807,-401 332.807,-395 332.807,-395 332.807,-249 332.807,-249 332.807,-243 338.807,-237 344.807,-237"/>
<text text-anchor="middle" x="412.14" y="-391.8" font-family="Times,serif" font-size="14.00">Warranty</text>
<polyline fill="none" stroke="black" points="332.807,-385 491.473,-385 "/>
<text text-anchor="start" x="340.807" y="-369.8" font-family="Times,serif" font-size="14.00">id :integer</text>
<text text-anchor="start" x="340.807" y="-355.8" font-family="Times,serif" font-size="14.00">name :string</text>
<text text-anchor="start" x="340.807" y="-341.8" font-family="Times,serif" font-size="14.00">description :text</text>
<text text-anchor="start" x="340.807" y="-327.8" font-family="Times,serif" font-size="14.00">warranty_number :string</text>
<text text-anchor="start" x="340.807" y="-313.8" font-family="Times,serif" font-size="14.00">expiration_date :datetime</text>
<text text-anchor="start" x="340.807" y="-299.8" font-family="Times,serif" font-size="14.00">url :string</text>
<text text-anchor="start" x="340.807" y="-285.8" font-family="Times,serif" font-size="14.00">notes :text</text>
<text text-anchor="start" x="340.807" y="-271.8" font-family="Times,serif" font-size="14.00">created_at :datetime</text>
<text text-anchor="start" x="340.807" y="-257.8" font-family="Times,serif" font-size="14.00">updated_at :datetime</text>
<text text-anchor="start" x="340.807" y="-243.8" font-family="Times,serif" font-size="14.00">item_id :integer</text>
</g>
<!-- Item&#45;&gt;Warranty -->
<g id="edge12" class="edge"><title>Item&#45;&gt;Warranty</title>
<path fill="none" stroke="#e89722" d="M334.135,-437.982C339.203,-430.512 344.277,-423.033 349.269,-415.674"/>
<ellipse fill="none" stroke="#e89722" cx="331.751" cy="-441.496" rx="4.00002" ry="4.00002"/>
<polygon fill="#e89722" stroke="#e89722" points="349.472,-415.375 358.81,-409.626 352.279,-411.238 355.086,-407.1 355.086,-407.1 355.086,-407.1 352.279,-411.238 351.362,-404.574 349.472,-415.375 349.472,-415.375"/>
</g>
<!-- Property -->
<g id="node7" class="node"><title>Property</title>
<path fill="none" stroke="black" d="M336.249,-1195C336.249,-1195 488.032,-1195 488.032,-1195 494.032,-1195 500.032,-1201 500.032,-1207 500.032,-1207 500.032,-1381 500.032,-1381 500.032,-1387 494.032,-1393 488.032,-1393 488.032,-1393 336.249,-1393 336.249,-1393 330.249,-1393 324.249,-1387 324.249,-1381 324.249,-1381 324.249,-1207 324.249,-1207 324.249,-1201 330.249,-1195 336.249,-1195"/>
<text text-anchor="middle" x="412.14" y="-1377.8" font-family="Times,serif" font-size="14.00">Property</text>
<polyline fill="none" stroke="black" points="324.249,-1371 500.032,-1371 "/>
<text text-anchor="start" x="332.249" y="-1355.8" font-family="Times,serif" font-size="14.00">id :integer</text>
<text text-anchor="start" x="332.249" y="-1341.8" font-family="Times,serif" font-size="14.00">sqft :integer</text>
<text text-anchor="start" x="332.249" y="-1327.8" font-family="Times,serif" font-size="14.00">lotsize :integer</text>
<text text-anchor="start" x="332.249" y="-1313.8" font-family="Times,serif" font-size="14.00">total_rooms :integer</text>
<text text-anchor="start" x="332.249" y="-1299.8" font-family="Times,serif" font-size="14.00">bedrooms :integer</text>
<text text-anchor="start" x="332.249" y="-1285.8" font-family="Times,serif" font-size="14.00">bathrooms :float</text>
<text text-anchor="start" x="332.249" y="-1271.8" font-family="Times,serif" font-size="14.00">zpid :string</text>
<text text-anchor="start" x="332.249" y="-1257.8" font-family="Times,serif" font-size="14.00">created_at :datetime</text>
<text text-anchor="start" x="332.249" y="-1243.8" font-family="Times,serif" font-size="14.00">updated_at :datetime</text>
<text text-anchor="start" x="332.249" y="-1229.8" font-family="Times,serif" font-size="14.00">actual_rooms_count :integer</text>
<text text-anchor="start" x="332.249" y="-1215.8" font-family="Times,serif" font-size="14.00">yearbuilt :integer</text>
<text text-anchor="start" x="332.249" y="-1201.8" font-family="Times,serif" font-size="14.00">address_id :integer</text>
</g>
<!-- Property&#45;&gt;Address -->
<g id="edge20" class="edge"><title>Property&#45;&gt;Address</title>
<path fill="none" stroke="#be1bd4" d="M506.296,-1197.15C520.786,-1182.41 535.675,-1167.25 549.954,-1152.71"/>
<ellipse fill="none" stroke="#be1bd4" cx="503.079" cy="-1200.43" rx="4.00002" ry="4.00002"/>
<ellipse fill="#be1bd4" stroke="#be1bd4" cx="552.803" cy="-1149.81" rx="4.00002" ry="4.00002"/>
</g>
<!-- Property&#45;&gt;Groundskeeper -->
<g id="edge16" class="edge"><title>Property&#45;&gt;Groundskeeper</title>
<path fill="none" stroke="#5183c9" d="M508.506,-1278.66C580.428,-1262.47 674.359,-1228.49 723.14,-1158 755.321,-1111.5 754.622,-716.605 753.561,-590.525"/>
<ellipse fill="none" stroke="#5183c9" cx="504.2" cy="-1279.61" rx="4.00001" ry="4.00001"/>
<polygon fill="#5183c9" stroke="#5183c9" points="753.559,-590.201 757.968,-580.161 753.513,-585.201 753.468,-580.201 753.468,-580.201 753.468,-580.201 753.513,-585.201 748.969,-580.242 753.559,-590.201 753.559,-590.201"/>
</g>
<!-- Property&#45;&gt;Insurance -->
<g id="edge18" class="edge"><title>Property&#45;&gt;Insurance</title>
<path fill="none" stroke="#29de0f" d="M358.105,-1187.36C353.554,-1177.51 349.162,-1167.62 345.14,-1158 333.809,-1130.9 179.315,-686.719 173.14,-658 155.914,-577.886 148.258,-484.967 144.857,-417.34"/>
<ellipse fill="none" stroke="#29de0f" cx="359.922" cy="-1191.26" rx="4.00002" ry="4.00002"/>
<polygon fill="#29de0f" stroke="#29de0f" points="144.846,-417.119 148.861,-406.914 144.606,-412.125 144.366,-407.131 144.366,-407.131 144.366,-407.131 144.606,-412.125 139.871,-407.347 144.846,-417.119 144.846,-417.119"/>
</g>
<!-- Property&#45;&gt;Item -->
<g id="edge21" class="edge"><title>Property&#45;&gt;Item</title>
<path fill="none" stroke="#f399d5" d="M390.131,-1187.1C361.5,-1049.33 311.657,-809.504 282.099,-667.28"/>
<ellipse fill="none" stroke="#f399d5" cx="390.956" cy="-1191.07" rx="4.00001" ry="4.00001"/>
<polygon fill="#f399d5" stroke="#f399d5" points="282.041,-667.003 284.412,-656.296 281.024,-662.107 280.006,-657.212 280.006,-657.212 280.006,-657.212 281.024,-662.107 275.6,-658.127 282.041,-667.003 282.041,-667.003"/>
</g>
<!-- Room -->
<g id="node9" class="node"><title>Room</title>
<path fill="none" stroke="black" d="M142.528,-973C142.528,-973 257.753,-973 257.753,-973 263.753,-973 269.753,-979 269.753,-985 269.753,-985 269.753,-1145 269.753,-1145 269.753,-1151 263.753,-1157 257.753,-1157 257.753,-1157 142.528,-1157 142.528,-1157 136.528,-1157 130.528,-1151 130.528,-1145 130.528,-1145 130.528,-985 130.528,-985 130.528,-979 136.528,-973 142.528,-973"/>
<text text-anchor="middle" x="200.14" y="-1141.8" font-family="Times,serif" font-size="14.00">Room</text>
<polyline fill="none" stroke="black" points="130.528,-1135 269.753,-1135 "/>
<text text-anchor="start" x="138.528" y="-1119.8" font-family="Times,serif" font-size="14.00">id :integer</text>
<text text-anchor="start" x="138.528" y="-1105.8" font-family="Times,serif" font-size="14.00">name :string</text>
<text text-anchor="start" x="138.528" y="-1091.8" font-family="Times,serif" font-size="14.00">sqft :integer</text>
<text text-anchor="start" x="138.528" y="-1077.8" font-family="Times,serif" font-size="14.00">dimensions :string</text>
<text text-anchor="start" x="138.528" y="-1063.8" font-family="Times,serif" font-size="14.00">flooring_type :string</text>
<text text-anchor="start" x="138.528" y="-1049.8" font-family="Times,serif" font-size="14.00">wall_type :string</text>
<text text-anchor="start" x="138.528" y="-1035.8" font-family="Times,serif" font-size="14.00">paint_color :string</text>
<text text-anchor="start" x="138.528" y="-1021.8" font-family="Times,serif" font-size="14.00">created_at :datetime</text>
<text text-anchor="start" x="138.528" y="-1007.8" font-family="Times,serif" font-size="14.00">updated_at :datetime</text>
<text text-anchor="start" x="138.528" y="-993.8" font-family="Times,serif" font-size="14.00">property_id :integer</text>
<text text-anchor="start" x="138.528" y="-979.8" font-family="Times,serif" font-size="14.00">user_entered :boolean</text>
</g>
<!-- Property&#45;&gt;Room -->
<g id="edge15" class="edge"><title>Property&#45;&gt;Room</title>
<path fill="none" stroke="#f12d9d" d="M318.439,-1194.6C306.854,-1182.31 295.201,-1169.89 284.14,-1158 281.857,-1155.55 279.542,-1153.05 277.207,-1150.53"/>
<ellipse fill="none" stroke="#f12d9d" cx="321.374" cy="-1197.72" rx="4.00002" ry="4.00002"/>
<polygon fill="#f12d9d" stroke="#f12d9d" points="276.946,-1150.25 273.464,-1139.85 273.553,-1146.58 270.159,-1142.9 270.159,-1142.9 270.159,-1142.9 273.553,-1146.58 266.854,-1145.96 276.946,-1150.25 276.946,-1150.25"/>
</g>
<!-- Property&#45;&gt;User -->
<g id="edge17" class="edge"><title>Property&#45;&gt;User</title>
<path fill="none" stroke="#321b62" d="M441.606,-1184.88C460.991,-1113.76 486.463,-1020.29 506.917,-945.241"/>
<polygon fill="#321b62" stroke="#321b62" points="441.548,-1185.1 434.577,-1193.56 440.233,-1189.92 438.919,-1194.74 438.919,-1194.74 438.919,-1194.74 440.233,-1189.92 443.26,-1195.93 441.548,-1185.1 441.548,-1185.1"/>
<polygon fill="#321b62" stroke="#321b62" points="507.011,-944.895 513.983,-936.43 508.326,-940.071 509.641,-935.247 509.641,-935.247 509.641,-935.247 508.326,-940.071 505.299,-934.064 507.011,-944.895 507.011,-944.895"/>
</g>
<!-- Property&#45;&gt;Warranty -->
<g id="edge19" class="edge"><title>Property&#45;&gt;Warranty</title>
<path fill="none" stroke="#25e733" d="M412.14,-1186.41C412.14,-995.631 412.14,-598.816 412.14,-417.304"/>
<ellipse fill="none" stroke="#25e733" cx="412.14" cy="-1190.65" rx="4" ry="4"/>
<polygon fill="#25e733" stroke="#25e733" points="412.14,-417.243 416.64,-407.243 412.14,-412.243 412.14,-407.243 412.14,-407.243 412.14,-407.243 412.14,-412.243 407.64,-407.243 412.14,-417.243 412.14,-417.243"/>
</g>
<!-- Reminder&#45;&gt;Item -->
<g id="edge23" class="edge"><title>Reminder&#45;&gt;Item</title>
<path fill="none" stroke="#37cffe" d="M263.237,-172.454C265.089,-242.949 265.385,-351.869 264.124,-434.636"/>
<ellipse fill="none" stroke="#37cffe" cx="263.115" cy="-168.051" rx="4" ry="4"/>
<polygon fill="#37cffe" stroke="#37cffe" points="264.123,-434.731 259.461,-444.656 264.042,-439.73 263.961,-444.729 263.961,-444.729 263.961,-444.729 264.042,-439.73 268.46,-444.802 264.123,-434.731 264.123,-434.731"/>
</g>
<!-- Room&#45;&gt;Item -->
<g id="edge25" class="edge"><title>Room&#45;&gt;Item</title>
<path fill="none" stroke="#73e9e1" d="M211.4,-964.608C221.034,-879.557 234.911,-757.054 245.042,-667.63"/>
<ellipse fill="none" stroke="#73e9e1" cx="210.926" cy="-968.785" rx="4.00001" ry="4.00001"/>
<polygon fill="#73e9e1" stroke="#73e9e1" points="245.07,-667.378 250.667,-657.949 245.633,-662.41 246.196,-657.442 246.196,-657.442 246.196,-657.442 245.633,-662.41 241.724,-656.935 245.07,-667.378 245.07,-667.378"/>
</g>
<!-- User&#45;&gt;Contact -->
<g id="edge29" class="edge"><title>User&#45;&gt;Contact</title>
<path fill="none" stroke="#e55355" d="M550.99,-686.876C556.638,-569.105 558.75,-389.498 533.14,-236 531.666,-227.161 529.722,-218.11 527.474,-209.086"/>
<ellipse fill="none" stroke="#e55355" cx="550.792" cy="-690.9" rx="4" ry="4"/>
<polygon fill="#e55355" stroke="#e55355" points="527.449,-208.991 529.275,-198.178 526.185,-204.153 524.921,-199.316 524.921,-199.316 524.921,-199.316 526.185,-204.153 520.568,-200.453 527.449,-208.991 527.449,-208.991"/>
</g>
<!-- User&#45;&gt;Groundskeeper -->
<g id="edge27" class="edge"><title>User&#45;&gt;Groundskeeper</title>
<path fill="none" stroke="#434901" d="M643.118,-688.616C672.856,-651.689 703.075,-614.166 724.299,-587.813"/>
<ellipse fill="none" stroke="#434901" cx="640.579" cy="-691.768" rx="4.00002" ry="4.00002"/>
<polygon fill="#434901" stroke="#434901" points="724.314,-587.794 734.091,-582.828 727.45,-583.9 730.586,-580.006 730.586,-580.006 730.586,-580.006 727.45,-583.9 727.081,-577.183 724.314,-587.794 724.314,-587.794"/>
</g>
<!-- User&#45;&gt;Item -->
<g id="edge28" class="edge"><title>User&#45;&gt;Item</title>
<path fill="none" stroke="#e303f0" d="M433.46,-713.738C403.07,-685.703 370.522,-655.676 341.822,-629.199"/>
<ellipse fill="none" stroke="#e303f0" cx="436.67" cy="-716.7" rx="4.00002" ry="4.00002"/>
<polygon fill="#e303f0" stroke="#e303f0" points="341.574,-628.97 337.275,-618.882 337.899,-625.58 334.224,-622.19 334.224,-622.19 334.224,-622.19 337.899,-625.58 331.172,-625.497 341.574,-628.97 341.574,-628.97"/>
</g>
<!-- User&#45;&gt;Reminder -->
<g id="edge30" class="edge"><title>User&#45;&gt;Reminder</title>
<path fill="none" stroke="#17ecdc" d="M540.153,-686.532C536.557,-527.193 526.683,-270.996 500.14,-236 471.595,-198.364 442.1,-221.695 400.14,-200 377.398,-188.241 354.067,-173.345 333.057,-158.702"/>
<ellipse fill="none" stroke="#17ecdc" cx="540.251" cy="-690.991" rx="4" ry="4"/>
<polygon fill="#17ecdc" stroke="#17ecdc" points="332.991,-158.656 327.413,-149.215 328.906,-155.774 324.82,-152.892 324.82,-152.892 324.82,-152.892 328.906,-155.774 322.226,-156.569 332.991,-158.656 332.991,-158.656"/>
</g>
<!-- Warranty&#45;&gt;Contact -->
<g id="edge33" class="edge"><title>Warranty&#45;&gt;Contact</title>
<path fill="none" stroke="#6c8ccf" d="M444.237,-229.294C446.64,-222.428 449.078,-215.464 451.511,-208.513"/>
<ellipse fill="none" stroke="#6c8ccf" cx="442.902" cy="-233.11" rx="4.00001" ry="4.00001"/>
<polygon fill="#6c8ccf" stroke="#6c8ccf" points="451.518,-208.492 459.069,-200.54 453.17,-203.772 454.822,-199.053 454.822,-199.053 454.822,-199.053 453.17,-203.772 450.574,-197.566 451.518,-208.492 451.518,-208.492"/>
</g>
<!-- Warranty&#45;&gt;Reminder -->
<g id="edge32" class="edge"><title>Warranty&#45;&gt;Reminder</title>
<path fill="none" stroke="#5fbf76" d="M348.478,-230.054C335.041,-210.858 321.045,-190.864 308.195,-172.506"/>
<ellipse fill="none" stroke="#5fbf76" cx="350.966" cy="-233.609" rx="4.00002" ry="4.00002"/>
<polygon fill="#5fbf76" stroke="#5fbf76" points="308.112,-172.388 306.064,-161.615 305.245,-168.292 302.377,-164.196 302.377,-164.196 302.377,-164.196 305.245,-168.292 298.691,-166.776 308.112,-172.388 308.112,-172.388"/>
</g>
<!-- ActiveRecord::Base -->
<g id="node12" class="node"><title>ActiveRecord::Base</title>
<ellipse fill="none" stroke="black" cx="354.14" cy="-1467" rx="80.9821" ry="18"/>
<text text-anchor="middle" x="354.14" y="-1462.8" font-family="Times,serif" font-size="14.00">ActiveRecord::Base</text>
</g>
<!-- ActiveRecord::Base&#45;&gt;Address -->
<g id="edge2" class="edge"><title>ActiveRecord::Base&#45;&gt;Address</title>
<path fill="none" stroke="black" d="M419.551,-1456.18C460.136,-1446.81 510.42,-1428.69 542.14,-1394 601.251,-1329.35 623.098,-1229.82 631.011,-1157.36"/>
</g>
<!-- ActiveRecord::Base&#45;&gt;Contact -->
<g id="edge4" class="edge"><title>ActiveRecord::Base&#45;&gt;Contact</title>
<path fill="none" stroke="black" d="M423.695,-1457.72C507.157,-1446.59 640.794,-1424.6 680.14,-1394 808.95,-1293.82 845.14,-1229.18 845.14,-1066 845.14,-1066 845.14,-1066 845.14,-550 845.14,-502.058 847.313,-486.507 825.14,-444 763.361,-325.561 647.266,-220.998 569.064,-159.35"/>
</g>
<!-- ActiveRecord::Base&#45;&gt;Groundskeeper -->
<g id="edge5" class="edge"><title>ActiveRecord::Base&#45;&gt;Groundskeeper</title>
<path fill="none" stroke="black" d="M425.499,-1458.27C477.363,-1449.66 546.973,-1431.61 597.14,-1394 696.962,-1319.16 709.649,-1276.35 749.14,-1158 819.908,-945.923 775.946,-668.375 758.963,-580.175"/>
</g>
<!-- ActiveRecord::Base&#45;&gt;Insurance -->
<g id="edge9" class="edge"><title>ActiveRecord::Base&#45;&gt;Insurance</title>
<path fill="none" stroke="black" d="M318.639,-1450.78C301.967,-1443.93 281.717,-1436.05 263.14,-1430 202.465,-1410.22 167.6,-1440.73 124.14,-1394 23.2159,-1285.48 64.1402,-1214.2 64.1402,-1066 64.1402,-1066 64.1402,-1066 64.1402,-814 64.1402,-669.643 97.4328,-504.337 120.516,-407.07"/>
</g>
<!-- ActiveRecord::Base&#45;&gt;Item -->
<g id="edge14" class="edge"><title>ActiveRecord::Base&#45;&gt;Item</title>
<path fill="none" stroke="black" d="M317.447,-1450.83C280.895,-1435.11 228.119,-1410.56 213.14,-1394 137.632,-1310.5 141.943,-1268.64 121.14,-1158 87.9042,-981.235 156.092,-777.635 207.677,-657.156"/>
</g>
<!-- ActiveRecord::Base&#45;&gt;Property -->
<g id="edge22" class="edge"><title>ActiveRecord::Base&#45;&gt;Property</title>
<path fill="none" stroke="black" d="M359.914,-1448.98C364.555,-1435.29 371.488,-1414.85 378.798,-1393.3"/>
</g>
<!-- ActiveRecord::Base&#45;&gt;Reminder -->
<g id="edge24" class="edge"><title>ActiveRecord::Base&#45;&gt;Reminder</title>
<path fill="none" stroke="black" d="M320.15,-1450.6C303.289,-1443.47 282.447,-1435.4 263.14,-1430 171.527,-1404.36 116.319,-1464.22 52.1402,-1394 -46.5134,-1286.05 26.1402,-1212.24 26.1402,-1066 26.1402,-1066 26.1402,-1066 26.1402,-550 26.1402,-409.891 -17.6023,-356.348 54.1402,-236 85.0201,-184.199 144.409,-148.328 191.179,-126.653"/>
</g>
<!-- ActiveRecord::Base&#45;&gt;Room -->
<g id="edge26" class="edge"><title>ActiveRecord::Base&#45;&gt;Room</title>
<path fill="none" stroke="black" d="M332.057,-1449.43C315.896,-1436.16 294.682,-1416.15 282.14,-1394 240.496,-1320.45 219.756,-1225.86 209.58,-1157.17"/>
</g>
<!-- ActiveRecord::Base&#45;&gt;User -->
<g id="edge31" class="edge"><title>ActiveRecord::Base&#45;&gt;User</title>
<path fill="none" stroke="black" d="M412.137,-1454.38C446.008,-1444.37 486.268,-1426.24 508.14,-1394 533.183,-1357.09 539.844,-1093.49 541.574,-935.302"/>
</g>
<!-- ActiveRecord::Base&#45;&gt;Warranty -->
<g id="edge34" class="edge"><title>ActiveRecord::Base&#45;&gt;Warranty</title>
<path fill="none" stroke="black" d="M341.742,-1448.97C332.371,-1434.99 320.274,-1414.26 315.14,-1394 293.303,-1307.84 310.213,-1282.75 315.14,-1194 331.237,-904.03 377.255,-562.254 399.627,-407.127"/>
</g>
</g>
</svg>
